<svg width="12" height="12" viewBox="0 0 12 12" fill="none" xmlns="http://www.w3.org/2000/svg">
<g clip-path="url(#clip0)">
<path d="M6.89321 6.00096L11.815 1.07915C12.0617 0.832491 12.0617 0.432601 11.815 0.185968C11.5684 -0.0606874 11.1685 -0.0606874 10.9218 0.185968L5.99999 5.10779L1.07817 0.185968C0.831514 -0.0606874 0.431624 -0.0606874 0.184992 0.185968C-0.0616405 0.432624 -0.061664 0.832514 0.184992 1.07915L5.10681 6.00096L0.184992 10.9228C-0.061664 11.1694 -0.061664 11.5693 0.184992 11.816C0.431648 12.0626 0.831538 12.0626 1.07817 11.816L5.99999 6.89414L10.9218 11.816C11.1684 12.0626 11.5684 12.0626 11.815 11.816C12.0616 11.5693 12.0616 11.1694 11.815 10.9228L6.89321 6.00096Z" fill="#686868"/>
</g>
<defs>
<clipPath id="clip0">
<rect width="12" height="12" fill="white"/>
</clipPath>
</defs>
</svg>
