<svg width="31" height="23" viewBox="0 0 31 23" fill="none" xmlns="http://www.w3.org/2000/svg">
<path d="M29.6825 2.8975C28.8416 1.40175 27.9291 1.12663 26.071 1.022C24.2149 0.896063 19.5474 0.84375 15.5039 0.84375C11.4526 0.84375 6.78319 0.896063 4.929 1.02006C3.07481 1.12663 2.16031 1.39981 1.31169 2.8975C0.445625 4.39131 0 6.96431 0 11.4942C0 11.4981 0 11.5 0 11.5C0 11.5039 0 11.5058 0 11.5058V11.5097C0 16.0202 0.445625 18.6126 1.31169 20.0909C2.16031 21.5866 3.07288 21.8579 4.92706 21.9838C6.78319 22.0923 11.4526 22.1562 15.5039 22.1562C19.5474 22.1562 24.2149 22.0923 26.0729 21.9858C27.931 21.8598 28.8436 21.5886 29.6844 20.0928C30.5583 18.6145 31 16.0221 31 11.5116C31 11.5116 31 11.5058 31 11.5019C31 11.5019 31 11.4981 31 11.4961C31 6.96431 30.5582 4.39131 29.6825 2.8975ZM11.625 17.3125V5.6875L21.3125 11.5L11.625 17.3125Z" fill="black"/>
</svg>
