<svg width="28" height="28" viewBox="0 0 28 28" fill="none" xmlns="http://www.w3.org/2000/svg">
<g clip-path="url(#clip0)">
<path d="M26.1436 27.0797L24.0155 6.81392C23.9709 6.38967 23.6132 6.06752 23.1866 6.06752H19.1868V5.15557C19.1868 2.31289 16.8739 0 14.0312 0C11.1883 0 8.87542 2.31289 8.87542 5.15557V6.06752H4.87555C4.44895 6.06752 4.09134 6.38967 4.0467 6.81392L1.91859 27.0797C1.89402 27.3144 1.97028 27.5488 2.12815 27.7244C2.28623 27.8998 2.51139 27.9999 2.74744 27.9999H25.3145C25.5508 27.9999 25.776 27.8998 25.9338 27.7244C26.0921 27.5488 26.1682 27.3144 26.1436 27.0797ZM10.5421 5.15557C10.5421 3.2319 12.1073 1.66668 14.0312 1.66668C15.9549 1.66668 17.5201 3.2319 17.5201 5.15557V6.06752H10.5421V5.15557ZM3.67286 26.3333L5.62601 7.73421H8.87542V9.57072C8.87542 10.0309 9.24862 10.4041 9.70876 10.4041C10.1689 10.4041 10.5421 10.0309 10.5421 9.57072V7.73421H17.5201V9.57072C17.5201 10.0309 17.8933 10.4041 18.3534 10.4041C18.8136 10.4041 19.1868 10.0309 19.1868 9.57072V7.73421H22.4362L24.3893 26.3333H3.67286Z" fill="black"/>
</g>
<defs>
<clipPath id="clip0">
<rect width="28" height="28" fill="white"/>
</clipPath>
</defs>
</svg>
