<svg width="31" height="25" viewBox="0 0 31 25" fill="none" xmlns="http://www.w3.org/2000/svg">
<path d="M29.9686 4.10175C29.3498 3.45346 28.4952 3.07038 27.5228 3.07038H22.6312V3.01144C22.6312 2.27475 22.3365 1.56753 21.8356 1.09604C21.3346 0.595092 20.6568 0.300415 19.9202 0.300415H11.0798C10.3137 0.300415 9.63593 0.595092 9.13498 1.09604C8.63403 1.59699 8.33935 2.27475 8.33935 3.01144V3.07038H3.47719C2.50475 3.07038 1.65019 3.45346 1.03137 4.10175C0.412548 4.72057 0 5.6046 0 6.54756V21.2225C0 22.1949 0.38308 23.0495 1.03137 23.6683C1.65019 24.2871 2.53422 24.6997 3.47719 24.6997H27.5228C28.4952 24.6997 29.3498 24.3166 29.9686 23.6683C30.5875 23.0495 31 22.1654 31 21.2225V6.54756C31 5.57513 30.6169 4.72057 29.9686 4.10175ZM29.4677 21.2225H29.4382C29.4382 21.7529 29.2319 22.2244 28.8783 22.578C28.5247 22.9316 28.0532 23.1379 27.5228 23.1379H3.47719C2.94677 23.1379 2.47529 22.9316 2.12167 22.578C1.76806 22.2244 1.56179 21.7529 1.56179 21.2225V6.54756C1.56179 6.01715 1.76806 5.54566 2.12167 5.19205C2.47529 4.83844 2.94677 4.63216 3.47719 4.63216H9.16445C9.60646 4.63216 9.96008 4.27855 9.96008 3.83654V2.98197C9.96008 2.65783 10.0779 2.36315 10.2842 2.15688C10.4905 1.95061 10.7852 1.83273 11.1093 1.83273H19.9202C20.2443 1.83273 20.539 1.95061 20.7452 2.15688C20.9515 2.36315 21.0694 2.65783 21.0694 2.98197V3.83654C21.0694 4.27855 21.423 4.63216 21.865 4.63216H27.5523C28.0827 4.63216 28.5542 4.83844 28.9078 5.19205C29.2614 5.54566 29.4677 6.01715 29.4677 6.54756V21.2225Z" fill="#AB9A80"/>
<path d="M15.5 6.63599C13.4962 6.63599 11.6692 7.46108 10.3726 8.75766C9.0466 10.0837 8.25098 11.8812 8.25098 13.885C8.25098 15.8888 9.07607 17.7158 10.3726 19.0124C11.6987 20.3385 13.4962 21.1341 15.5 21.1341C17.5038 21.1341 19.3308 20.309 20.6274 19.0124C21.9534 17.6864 22.7491 15.8888 22.7491 13.885C22.7491 11.8812 21.924 10.0542 20.6274 8.75766C19.3308 7.46108 17.5038 6.63599 15.5 6.63599ZM19.5076 17.9221C18.4763 18.924 17.0618 19.5723 15.5 19.5723C13.9382 19.5723 12.5238 18.924 11.4924 17.9221C10.4611 16.8907 9.84223 15.4763 9.84223 13.9145C9.84223 12.3527 10.4905 10.9383 11.4924 9.9069C12.5238 8.87553 13.9382 8.25671 15.5 8.25671C17.0618 8.25671 18.4763 8.905 19.5076 9.9069C20.539 10.9383 21.1578 12.3527 21.1578 13.9145C21.1873 15.4763 20.539 16.8907 19.5076 17.9221Z" fill="#AB9A80"/>
<path d="M25.9908 9.49428C26.7882 9.49428 27.4347 8.84781 27.4347 8.05036C27.4347 7.25291 26.7882 6.60645 25.9908 6.60645C25.1933 6.60645 24.5469 7.25291 24.5469 8.05036C24.5469 8.84781 25.1933 9.49428 25.9908 9.49428Z" fill="#AB9A80"/>
</svg>
