<svg width="21" height="33" viewBox="0 0 21 33" fill="none" xmlns="http://www.w3.org/2000/svg">
<path d="M20.9062 10.7188C20.9062 10.2588 20.7235 9.81762 20.3983 9.49236C20.073 9.1671 19.6319 8.98438 19.1719 8.98438C18.7119 8.98438 18.2707 9.1671 17.9455 9.49236C17.6202 9.81762 17.4375 10.2588 17.4375 10.7188V17.6562C17.4375 17.8096 17.3766 17.9566 17.2682 18.065C17.1598 18.1735 17.0127 18.2344 16.8594 18.2344C16.0406 18.2301 15.2479 18.5218 14.6272 19.0559C14.4637 19.1861 14.3152 19.334 14.1844 19.497C13.6682 20.1159 13.3871 20.8972 13.3906 21.7031H12.2344C12.23 20.629 12.6044 19.5877 13.2918 18.7622C13.4702 18.5407 13.6724 18.3394 13.8948 18.1621C14.569 17.5842 15.3995 17.2193 16.2812 17.1134V10.7188C16.2826 10.2724 16.3877 9.83238 16.5884 9.43363C16.7891 9.03488 17.0798 8.68829 17.4375 8.42128V5.51562C17.4375 5.05564 17.2548 4.61449 16.9295 4.28924C16.6043 3.96398 16.1631 3.78125 15.7031 3.78125C15.2431 3.78125 14.802 3.96398 14.4767 4.28924C14.1515 4.61449 13.9688 5.05564 13.9688 5.51562V8.98438H12.8125V2.04688C12.8125 1.58689 12.6298 1.14575 12.3045 0.820487C11.9793 0.495228 11.5381 0.3125 11.0781 0.3125C10.6181 0.3125 10.177 0.495228 9.85174 0.820487C9.52648 1.14575 9.34375 1.58689 9.34375 2.04688V7.82812H8.1875V5.51562C8.1875 5.05564 8.00477 4.61449 7.67951 4.28924C7.35426 3.96398 6.91311 3.78125 6.45312 3.78125C5.99314 3.78125 5.55199 3.96398 5.22674 4.28924C4.90148 4.61449 4.71875 5.05564 4.71875 5.51562V10.1406H3.5625V8.40625C3.5625 7.94627 3.37977 7.50512 3.05451 7.17986C2.72926 6.8546 2.28811 6.67188 1.82812 6.67188C1.36814 6.67188 0.926995 6.8546 0.601736 7.17986C0.276478 7.50512 0.09375 7.94627 0.09375 8.40625V20.9886L2.92656 26.6478C2.96557 26.7283 2.98536 26.8168 2.98438 26.9062V28.0625H16.8594V26.9062C16.8597 26.7963 16.8909 26.6888 16.9496 26.5958L20.9062 20.3786V10.7188ZM10.5 19.9688C9.81395 19.9688 9.1433 19.7653 8.57287 19.3842C8.00243 19.003 7.55783 18.4613 7.29529 17.8274C7.03275 17.1936 6.96406 16.4962 7.0979 15.8233C7.23174 15.1504 7.56211 14.5323 8.04722 14.0472C8.53234 13.5621 9.15041 13.2317 9.82328 13.0979C10.4962 12.9641 11.1936 13.0328 11.8274 13.2953C12.4613 13.5578 13.003 14.0024 13.3842 14.5729C13.7653 15.1433 13.9688 15.8139 13.9688 16.5C13.9678 17.4197 13.6021 18.3014 12.9518 18.9518C12.3014 19.6021 11.4197 19.9678 10.5 19.9688ZM11.0781 21.125V22.2812H9.92188V21.125H11.0781ZM7.63828 20.1792L6.82081 20.9967L6.00334 20.1792L6.82081 19.3617L7.63828 20.1792ZM6.00334 12.8208L6.82081 12.0033L7.63828 12.8208L6.82081 13.6383L6.00334 12.8208ZM9.92188 11.875V10.7188H11.0781V11.875H9.92188ZM14.1792 13.6383L13.3617 12.8208L14.1792 12.0033L14.9967 12.8208L14.1792 13.6383ZM12.2286 24.0977C12.2088 24.2354 12.1401 24.3614 12.035 24.4525C11.9298 24.5436 11.7954 24.5938 11.6562 24.5938H9.34375C9.20463 24.5938 9.07017 24.5436 8.96504 24.4525C8.85991 24.3614 8.79116 24.2354 8.77141 24.0977L8.54998 22.5472C8.22397 22.4426 7.90707 22.3115 7.60244 22.1552L6.34964 23.0941C6.23835 23.1774 6.10077 23.2178 5.9621 23.208C5.82343 23.1981 5.69297 23.1386 5.59461 23.0403L3.95967 21.4054C3.86128 21.307 3.80167 21.1764 3.79179 21.0376C3.78192 20.8988 3.82243 20.7611 3.90591 20.6498L4.84536 19.3976C4.68889 19.0929 4.5576 18.776 4.45281 18.45L2.90228 18.2286C2.76457 18.2088 2.6386 18.1401 2.54749 18.035C2.45638 17.9298 2.40623 17.7954 2.40625 17.6562V15.3438C2.40623 15.2046 2.45638 15.0702 2.54749 14.965C2.6386 14.8599 2.76457 14.7912 2.90228 14.7714L4.45281 14.55C4.5576 14.224 4.68889 13.9071 4.84536 13.6024L3.90591 12.3502C3.82243 12.2389 3.78192 12.1012 3.79179 11.9624C3.80167 11.8236 3.86128 11.693 3.95967 11.5946L5.59461 9.95967C5.69297 9.86143 5.82343 9.80192 5.9621 9.79204C6.10077 9.78217 6.23835 9.82259 6.34964 9.90591L7.60244 10.8448C7.90707 10.6885 8.22397 10.5574 8.54998 10.4528L8.77141 8.90228C8.79116 8.76457 8.85991 8.63861 8.96504 8.54749C9.07017 8.45638 9.20463 8.40623 9.34375 8.40625H11.6562C11.7954 8.40623 11.9298 8.45638 12.035 8.54749C12.1401 8.63861 12.2088 8.76457 12.2286 8.90228L12.45 10.4528C12.776 10.5575 13.0929 10.6886 13.3976 10.8448L14.6504 9.90591C14.7616 9.82259 14.8992 9.78217 15.0379 9.79204C15.1766 9.80192 15.307 9.86143 15.4054 9.95967L16.1119 10.6656L15.2944 11.483L14.9429 11.1315L13.7918 11.9941C13.7003 12.0627 13.5905 12.1026 13.4762 12.1088C13.362 12.115 13.2485 12.0871 13.1501 12.0288C12.7257 11.7762 12.2669 11.5863 11.7881 11.4651C11.677 11.4369 11.5768 11.3764 11.5002 11.2911C11.4237 11.2059 11.3741 11.0999 11.3579 10.9864L11.155 9.5625H9.84499L9.64206 10.9864C9.62588 11.0999 9.57635 11.2059 9.49976 11.2911C9.42318 11.3764 9.323 11.4369 9.21194 11.4651C8.73311 11.5863 8.27434 11.7762 7.84988 12.0288C7.75148 12.0871 7.63798 12.115 7.52375 12.1088C7.40952 12.1026 7.29969 12.0627 7.20816 11.9941L6.05711 11.1315L5.13211 12.0565L5.99467 13.207C6.06351 13.2985 6.10361 13.4084 6.10989 13.5228C6.11616 13.6371 6.08834 13.7508 6.02994 13.8493C5.77736 14.2741 5.58714 14.733 5.46511 15.2119C5.43677 15.3227 5.37622 15.4226 5.29111 15.4989C5.20601 15.5753 5.10018 15.6247 4.987 15.6409L3.5625 15.845V17.155L4.98642 17.3585C5.0996 17.3747 5.20543 17.4241 5.29054 17.5005C5.37564 17.5768 5.43619 17.6767 5.46453 17.7875C5.58656 18.2664 5.77678 18.7253 6.02936 19.1501C6.08776 19.2486 6.11559 19.3623 6.10931 19.4766C6.10303 19.591 6.06293 19.7009 5.99409 19.7924L5.13153 20.9429L6.05653 21.8679L7.20758 21.0053C7.29911 20.9367 7.40894 20.8968 7.52317 20.8906C7.63741 20.8844 7.7509 20.9123 7.8493 20.9706C8.27376 21.2232 8.73253 21.4131 9.21136 21.5343C9.32242 21.5625 9.4226 21.623 9.49918 21.7083C9.57577 21.7935 9.6253 21.8996 9.64148 22.013L9.84499 23.4375H11.155L11.3579 22.0136L12.5032 22.1772L12.2286 24.0977ZM5.875 15.9219V17.0781H4.71875V15.9219H5.875Z" fill="#902757"/>
<path d="M10.5 18.8125C11.7772 18.8125 12.8125 17.7772 12.8125 16.5C12.8125 15.2228 11.7772 14.1875 10.5 14.1875C9.22284 14.1875 8.1875 15.2228 8.1875 16.5C8.1875 17.7772 9.22284 18.8125 10.5 18.8125Z" fill="#902757"/>
<path d="M17.4375 29.2188H2.40625V32.6875H17.4375V29.2188Z" fill="#902757"/>
</svg>
