<svg width="18" height="11" viewBox="0 0 18 11" fill="none" xmlns="http://www.w3.org/2000/svg">
<path fill-rule="evenodd" clip-rule="evenodd" d="M9.02791 9.98214H10.009C10.009 9.98214 10.3054 9.94961 10.4567 9.7865C10.5959 9.63676 10.5915 9.35556 10.5915 9.35556C10.5915 9.35556 10.5723 8.03911 11.1833 7.84526C11.7856 7.6543 12.559 9.11758 13.3788 9.68021C13.9987 10.106 14.4697 10.0127 14.4697 10.0127L16.6616 9.98214C16.6616 9.98214 17.8083 9.91151 17.2646 9.00996C17.22 8.9362 16.948 8.34305 15.6349 7.1242C14.2605 5.84853 14.4445 6.05486 16.1001 3.84824C17.1084 2.50438 17.5115 1.68394 17.3856 1.33255C17.2655 0.997867 16.5239 1.08633 16.5239 1.08633L14.0559 1.1017C14.0559 1.1017 13.873 1.07675 13.7373 1.15785C13.6047 1.2374 13.5194 1.42279 13.5194 1.42279C13.5194 1.42279 13.1288 2.46271 12.6078 3.3471C11.5088 5.21326 11.0694 5.31175 10.8898 5.19588C10.472 4.92581 10.5763 4.11095 10.5763 3.53205C10.5763 1.72361 10.8506 0.969569 10.0422 0.774375C9.77392 0.709533 9.5765 0.666751 8.89042 0.659843C8.00982 0.650707 7.26448 0.662517 6.84245 0.869298C6.56169 1.00678 6.3451 1.31316 6.47701 1.33077C6.64012 1.3526 7.00956 1.43037 7.20543 1.69709C7.45833 2.04113 7.44942 2.81389 7.44942 2.81389C7.44942 2.81389 7.5947 4.94275 7.11006 5.20724C6.77738 5.38862 6.32104 5.01829 5.34128 3.32527C4.83925 2.45803 4.46023 1.49944 4.46023 1.49944C4.46023 1.49944 4.38714 1.32029 4.25679 1.22448C4.09859 1.10839 3.87755 1.0714 3.87755 1.0714L1.53232 1.08677C1.53232 1.08677 1.18026 1.09658 1.05102 1.24966C0.936041 1.3858 1.04188 1.66745 1.04188 1.66745C1.04188 1.66745 2.87796 5.96306 4.95691 8.1278C6.86317 10.1125 9.02791 9.98214 9.02791 9.98214Z" fill="white"/>
</svg>
