<svg width="28" height="28" viewBox="0 0 28 28" fill="none" xmlns="http://www.w3.org/2000/svg">
<path d="M21.4662 14.3094C21.4952 15.5268 21.1437 16.7229 20.4606 17.731C19.1208 19.7428 16.4547 20.5333 13.9996 20.5333C11.5729 20.5333 8.85644 19.7339 7.53858 17.731C6.85547 16.7229 6.50391 15.5268 6.53291 14.3094C6.60192 11.3021 8.07638 8.50109 10.5164 6.74192C11.0014 6.40226 11.5305 6.13033 12.089 5.93365C13.3239 5.48875 14.6753 5.48875 15.9101 5.93365C16.4686 6.13033 16.9977 6.40226 17.4828 6.74192C19.9228 8.50109 21.3972 11.3021 21.4662 14.3094Z" fill="#902757"/>
<path d="M18.485 3.79867L17.897 5.362C17.4074 5.05252 16.8846 4.79893 16.3384 4.606C16.2917 4.592 16.2497 4.57333 16.203 4.564L16.735 3.14067C16.8512 2.84594 16.8108 2.5125 16.6277 2.254C16.4669 2.01169 16.1952 1.86622 15.9044 1.86667H12.0964C11.8055 1.86622 11.5339 2.01169 11.373 2.254C11.1899 2.5125 11.1495 2.84594 11.2657 3.14067L11.7977 4.564C11.751 4.57333 11.709 4.592 11.6624 4.606C11.1171 4.79924 10.5945 5.05117 10.1037 5.35733L9.5157 3.79867C9.18942 2.92884 9.3097 1.95438 9.8377 1.19C10.3486 0.445487 11.1934 0.000384319 12.0964 0H15.9044C16.8073 0.000384319 17.6521 0.445487 18.163 1.19C18.691 1.95438 18.8113 2.92884 18.485 3.79867Z" fill="#902757"/>
<path d="M27.5335 21.9333C27.5319 22.4482 27.115 22.8651 26.6001 22.8667C26.2688 22.8667 25.8955 22.8667 25.7275 22.8853C25.6995 22.9227 25.6668 22.9693 25.6295 23.0207C25.3845 23.3522 25.1195 23.6686 24.8361 23.968C24.4066 24.4215 23.9398 24.8383 23.4408 25.214C22.7071 25.7667 21.9153 26.2378 21.0795 26.6187C18.2981 27.902 14.9568 28 14.0001 28C13.0435 28 9.70213 27.902 6.9208 26.6187C4.85813 25.6713 3.44413 24.5933 2.59946 23.3193C2.50761 23.1725 2.40791 23.0308 2.3008 22.8947C2.00146 22.8665 1.70064 22.8572 1.40013 22.8667C0.884664 22.8667 0.466797 22.4488 0.466797 21.9333C0.466797 21.4179 0.884664 21 1.40013 21C3.0148 21 3.3648 21.0933 4.15346 22.288C4.7928 23.2493 5.98746 24.136 7.70013 24.9247C10.1408 26.0447 13.1368 26.1333 14.0001 26.1333C14.8635 26.1333 17.8595 26.0447 20.3001 24.9247C21.0137 24.5993 21.6897 24.1971 22.3161 23.7253C22.7321 23.4135 23.1208 23.0669 23.4781 22.6893C23.7132 22.4429 23.9314 22.1809 24.1315 21.9053C24.8035 21 25.2188 21 26.6001 21C27.115 21.0015 27.5319 21.4185 27.5335 21.9333Z" fill="#902757"/>
<path d="M27.5335 17.2666C27.5319 17.7814 27.115 18.1984 26.6001 18.1999H25.0648C24.4803 18.1672 23.8995 18.3119 23.3988 18.6153C22.8426 19.0351 22.36 19.5445 21.9708 20.1226C21.2363 21.1082 20.2587 21.8864 19.1335 22.3813C17.5006 23.0296 15.7569 23.3529 14.0001 23.3333C12.2434 23.3529 10.4997 23.0296 8.8668 22.3813C7.74159 21.8864 6.76398 21.1082 6.02946 20.1226C5.64025 19.5445 5.15768 19.0351 4.60146 18.6153C4.10074 18.3119 3.51998 18.1672 2.93546 18.1999H1.40013C0.884664 18.1999 0.466797 17.7821 0.466797 17.2666C0.466797 16.7511 0.884664 16.3333 1.40013 16.3333H2.93546C3.9005 16.2964 4.85354 16.557 5.66546 17.0799C6.21844 17.4793 6.71318 17.9536 7.13546 18.4893C8.53546 20.6173 11.4195 21.4666 14.0001 21.4666C16.6088 21.4666 19.4415 20.6266 20.8648 18.4893C21.2871 17.9536 21.7818 17.4793 22.3348 17.0799C23.1467 16.557 24.0998 16.2964 25.0648 16.3333H26.6001C27.115 16.3348 27.5319 16.7518 27.5335 17.2666Z" fill="#902757"/>
<path d="M3.26634 18.6807V20.7621C2.96856 20.6437 2.65312 20.5759 2.33301 20.5614V18.6667H2.93501C3.05167 18.6667 3.15901 18.6714 3.26634 18.6807Z" fill="#902757"/>
<path d="M6.06615 20.9207V23.4874C5.73348 23.2632 5.42117 23.0102 5.13281 22.7314V19.7354C5.31635 19.9431 5.48775 20.1612 5.64615 20.3887C5.77574 20.574 5.91597 20.7516 6.06615 20.9207Z" fill="#902757"/>
<path d="M8.86693 22.89V24.8827C8.54951 24.7764 8.23796 24.6533 7.93359 24.514V22.4233C8.19493 22.5727 8.44226 22.6987 8.67093 22.806L8.86693 22.89Z" fill="#902757"/>
<path d="M11.6667 23.6227V25.508C11.3681 25.4707 11.0554 25.424 10.7334 25.3587V23.4547C11.0461 23.5247 11.3587 23.5807 11.6667 23.6227Z" fill="#902757"/>
<path d="M14.4665 23.7908V25.6621C14.2752 25.6668 14.1165 25.6668 13.9999 25.6668C13.8832 25.6668 13.7245 25.6668 13.5332 25.6574V23.7908C13.6965 23.7954 13.8505 23.8001 13.9999 23.8001C14.1492 23.8001 14.3032 23.7954 14.4665 23.7908Z" fill="#902757"/>
<path d="M17.2663 23.4547V25.3587C16.9443 25.424 16.6317 25.4707 16.333 25.508V23.6227C16.641 23.5807 16.9537 23.5247 17.2663 23.4547Z" fill="#902757"/>
<path d="M20.0661 22.4233V24.514C19.7618 24.6533 19.4502 24.7764 19.1328 24.8827V22.89L19.3288 22.806C19.5575 22.6987 19.8048 22.5727 20.0661 22.4233Z" fill="#902757"/>
<path d="M22.8669 19.7354V22.6427C22.604 22.8968 22.325 23.1338 22.0316 23.352C21.9989 23.3754 21.9663 23.4033 21.9336 23.422V20.9207C22.0838 20.7516 22.224 20.574 22.3536 20.3887C22.512 20.1612 22.6834 19.9431 22.8669 19.7354Z" fill="#902757"/>
<path d="M25.6667 18.6667V20.5521C25.345 20.5612 25.0281 20.6325 24.7334 20.7621V18.6807C24.8407 18.6714 24.9481 18.6667 25.0647 18.6667H25.6667Z" fill="#902757"/>
</svg>
