<svg width="21" height="21" viewBox="0 0 21 21" fill="none" xmlns="http://www.w3.org/2000/svg">
<g clip-path="url(#clip0)">
<path d="M12.0631 10.501L20.6763 1.88777C21.1079 1.45613 21.1079 0.756319 20.6763 0.324712C20.2447 -0.106935 19.5448 -0.106935 19.1132 0.324712L10.5 8.93789L1.8868 0.324712C1.45515 -0.106935 0.755342 -0.106935 0.323736 0.324712C-0.107871 0.75636 -0.107912 1.45617 0.323736 1.88777L8.93692 10.501L0.323736 19.1141C-0.107912 19.5458 -0.107912 20.2456 0.323736 20.6772C0.755383 21.1088 1.45519 21.1088 1.8868 20.6772L10.5 12.064L19.1131 20.6772C19.5448 21.1088 20.2446 21.1088 20.6762 20.6772C21.1078 20.2456 21.1078 19.5457 20.6762 19.1141L12.0631 10.501Z" fill="#686868"/>
</g>
<defs>
<clipPath id="clip0">
<rect width="21" height="21" fill="white"/>
</clipPath>
</defs>
</svg>
