<svg width="23" height="23" viewBox="0 0 23 23" fill="none" xmlns="http://www.w3.org/2000/svg">
<path fill-rule="evenodd" clip-rule="evenodd" d="M19.1271 3.84108C17.1098 1.82144 14.427 0.708704 11.5689 0.70752C5.67946 0.70752 0.886335 5.50052 0.883966 11.3915C0.883177 13.2747 1.37512 15.113 2.31019 16.7333L0.794342 22.27L6.45858 20.7842C8.0193 21.6355 9.77639 22.0842 11.5645 22.0847H11.569C17.4578 22.0847 22.2514 17.2913 22.2537 11.4001C22.2548 8.54498 21.1445 5.86059 19.1271 3.84108ZM11.5689 20.2803H11.5652C9.97169 20.2796 8.40886 19.8513 7.04515 19.0424L6.721 18.8498L3.35976 19.7316L4.25692 16.4544L4.04569 16.1184C3.15669 14.7045 2.68725 13.0702 2.68804 11.3922C2.68988 6.49573 6.67389 2.51212 11.5724 2.51212C13.9445 2.5129 16.1743 3.43784 17.851 5.11649C19.5277 6.79513 20.4505 9.0264 20.4497 11.3994C20.4476 16.2962 16.4639 20.2803 11.5689 20.2803V20.2803ZM16.4402 13.629C16.1733 13.4952 14.8606 12.8496 14.6158 12.7604C14.3713 12.6713 14.1931 12.6269 14.0153 12.8941C13.8373 13.1612 13.3257 13.7627 13.1699 13.9407C13.0141 14.1189 12.8585 14.1413 12.5915 14.0076C12.3244 13.874 11.4643 13.592 10.4444 12.6824C9.65084 11.9745 9.11506 11.1003 8.95924 10.8331C8.80368 10.5657 8.95793 10.4351 9.07637 10.2882C9.36538 9.92936 9.65479 9.55309 9.74375 9.37503C9.83285 9.19683 9.78823 9.04088 9.72138 8.9073C9.65479 8.77372 9.12086 7.45962 8.89844 6.9249C8.68155 6.40453 8.46164 6.4748 8.29765 6.46664C8.14209 6.45888 7.96403 6.4573 7.78597 6.4573C7.60803 6.4573 7.31876 6.52402 7.07397 6.79145C6.82931 7.05874 6.13969 7.70454 6.13969 9.01864C6.13969 10.3327 7.09634 11.6022 7.22979 11.7804C7.36324 11.9586 9.11243 14.6552 11.7905 15.8115C12.4275 16.0869 12.9247 16.251 13.3125 16.374C13.9521 16.5772 14.534 16.5485 14.9941 16.4798C15.5071 16.4031 16.5735 15.8339 16.7962 15.2104C17.0186 14.5867 17.0186 14.0522 16.9517 13.9407C16.8851 13.8294 16.7071 13.7627 16.4402 13.629V13.629Z" fill="black"/>
</svg>
