<svg width="18" height="14" viewBox="0 0 18 14" fill="none" xmlns="http://www.w3.org/2000/svg">
<path d="M1.4375 7.68745L15.1528 7.68745L9.90097 12.6897C9.62597 12.9516 9.61531 13.3868 9.87725 13.6618C10.1388 13.9365 10.574 13.9475 10.8494 13.6855L16.8471 7.97242C17.1067 7.71255 17.25 7.36742 17.25 6.99995C17.25 6.63283 17.1067 6.28736 16.8351 6.01614L10.849 0.3147C10.716 0.187856 10.5455 0.12495 10.375 0.12495C10.1935 0.12495 10.012 0.19645 9.87691 0.338418C9.61497 0.613418 9.62563 1.04826 9.90063 1.3102L15.1744 6.31245L1.4375 6.31245C1.058 6.31245 0.749999 6.62045 0.749999 6.99995C0.749999 7.37945 1.058 7.68745 1.4375 7.68745V7.68745Z" fill="black"/>
</svg>
