<svg width="18" height="18" viewBox="0 0 18 18" fill="none" xmlns="http://www.w3.org/2000/svg">
<g clip-path="url(#clip0)">
<path d="M8.87161 8.67065C10.0628 8.67065 11.0943 8.24342 11.9371 7.4005C12.7799 6.55771 13.2071 5.52651 13.2071 4.33519C13.2071 3.14427 12.7799 2.11294 11.9369 1.26988C11.094 0.427229 10.0627 0 8.87161 0C7.68028 0 6.64908 0.427229 5.80629 1.27001C4.9635 2.1128 4.53613 3.14414 4.53613 4.33519C4.53613 5.52651 4.9635 6.55785 5.80643 7.40064C6.64935 8.24328 7.68069 8.67065 8.87161 8.67065Z" fill="#AB9A80"/>
<path d="M16.4577 13.841C16.4333 13.4903 16.3842 13.1077 16.3118 12.7037C16.2388 12.2966 16.1447 11.9119 16.0321 11.5602C15.9158 11.1966 15.7576 10.8377 15.562 10.4937C15.359 10.1366 15.1206 9.82569 14.8531 9.56985C14.5734 9.3022 14.2309 9.087 13.8348 8.93004C13.4401 8.77389 13.0027 8.69479 12.5349 8.69479C12.3511 8.69479 12.1734 8.77019 11.8302 8.99362C11.619 9.13136 11.3719 9.29066 11.0962 9.46685C10.8604 9.61709 10.541 9.75785 10.1464 9.88529C9.76149 10.0099 9.37065 10.073 8.98489 10.073C8.59914 10.073 8.20844 10.0099 7.82309 9.88529C7.42896 9.75799 7.10953 9.61723 6.87401 9.46699C6.60086 9.29245 6.35367 9.13315 6.1393 8.99348C5.79652 8.77005 5.61868 8.69466 5.43494 8.69466C4.96692 8.69466 4.52966 8.77389 4.13512 8.93017C3.73933 9.08687 3.3967 9.30206 3.11668 9.56999C2.8493 9.82597 2.61076 10.1367 2.40807 10.4937C2.21265 10.8377 2.05444 11.1965 1.93799 11.5603C1.82552 11.912 1.73145 12.2966 1.65839 12.7037C1.58601 13.1072 1.53685 13.4899 1.51254 13.8415C1.48865 14.1859 1.47656 14.5433 1.47656 14.9044C1.47656 15.844 1.77525 16.6046 2.36426 17.1656C2.94598 17.7192 3.71571 18 4.65175 18H13.3189C14.2549 18 15.0244 17.7193 15.6062 17.1656C16.1954 16.6051 16.494 15.8443 16.494 14.9042C16.4939 14.5416 16.4817 14.1838 16.4577 13.841Z" fill="#AB9A80"/>
</g>
<defs>
<clipPath id="clip0">
<rect width="18" height="18" fill="white"/>
</clipPath>
</defs>
</svg>
