<svg width="28" height="27" viewBox="0 0 28 27" fill="none" xmlns="http://www.w3.org/2000/svg">
<g clip-path="url(#clip0)">
<path d="M8.71401 16.9099H8.71525C8.71628 16.9099 8.71731 16.9097 8.71834 16.9097H23.0844C23.4381 16.9097 23.749 16.6828 23.8462 16.3539L27.0157 5.62575C27.084 5.39447 27.0361 5.14582 26.8865 4.95385C26.7367 4.76187 26.5025 4.64893 26.2539 4.64893H6.8866L6.32018 2.18381C6.2395 1.83319 5.91801 1.58374 5.54659 1.58374H0.79237C0.354709 1.58374 0 1.92678 0 2.35004C0 2.7733 0.354709 3.11633 0.79237 3.11633H4.91104C5.01133 3.55316 7.62161 14.9131 7.77183 15.5667C6.92973 15.9207 6.33896 16.7327 6.33896 17.676C6.33896 18.9435 7.40536 19.9749 8.71607 19.9749H23.0844C23.522 19.9749 23.8768 19.6318 23.8768 19.2086C23.8768 18.7853 23.522 18.4423 23.0844 18.4423H8.71607C8.27924 18.4423 7.9237 18.0984 7.9237 17.676C7.9237 17.2541 8.278 16.9109 8.71401 16.9099V16.9099ZM25.2034 6.18152L22.4866 15.3771H9.35162L7.23863 6.18152H25.2034Z" fill="white"/>
<path d="M7.92358 22.2736C7.92358 23.5412 8.98998 24.5725 10.3007 24.5725C11.6114 24.5725 12.6778 23.5412 12.6778 22.2736C12.6778 21.006 11.6114 19.9747 10.3007 19.9747C8.98998 19.9747 7.92358 21.006 7.92358 22.2736ZM10.3007 21.5073C10.7375 21.5073 11.0931 21.8512 11.0931 22.2736C11.0931 22.6961 10.7375 23.0399 10.3007 23.0399C9.86386 23.0399 9.50832 22.6961 9.50832 22.2736C9.50832 21.8512 9.86386 21.5073 10.3007 21.5073Z" fill="white"/>
<path d="M19.1223 22.2736C19.1223 23.5412 20.1887 24.5725 21.4994 24.5725C22.8101 24.5725 23.8765 23.5412 23.8765 22.2736C23.8765 21.006 22.8101 19.9747 21.4994 19.9747C20.1887 19.9747 19.1223 21.006 19.1223 22.2736ZM21.4994 21.5073C21.9363 21.5073 22.2918 21.8512 22.2918 22.2736C22.2918 22.6961 21.9363 23.0399 21.4994 23.0399C21.0626 23.0399 20.7071 22.6961 20.7071 22.2736C20.7071 21.8512 21.0626 21.5073 21.4994 21.5073Z" fill="white"/>
</g>
<defs>
<clipPath id="clip0">
<rect width="27.0462" height="26.1562" fill="white"/>
</clipPath>
</defs>
</svg>
