<svg width="29" height="29" viewBox="0 0 29 29" fill="none" xmlns="http://www.w3.org/2000/svg">
<g clip-path="url(#clip0)">
<path d="M27.2302 3.18689C24.8705 0.827189 21.031 0.827189 18.6712 3.18689C17.5281 4.33001 16.8986 5.84984 16.8986 7.46642C16.8986 9.083 17.5281 10.6028 18.6712 11.7459C19.258 12.3327 19.9441 12.7837 20.6915 13.0841C20.4289 13.4497 20.1605 13.7159 19.9583 13.865C19.0852 14.5089 18.3117 15.2655 17.6618 16.1029C17.5862 15.6503 17.4585 15.2009 17.2773 14.7618C16.5156 12.9162 14.9672 11.5917 13.0291 11.1277L12.3249 10.9591C12.3112 10.9011 12.2976 10.843 12.284 10.7841C11.4971 7.37748 8.63858 4.80256 5.17091 4.37672C4.83953 4.33606 4.5373 4.57185 4.49664 4.90354C4.45592 5.23517 4.69177 5.53709 5.02346 5.57781C7.98815 5.94193 10.4321 8.14359 11.105 11.0565C11.4141 12.3944 11.7261 13.5413 12.0324 14.4653C12.1167 14.7193 12.353 14.8801 12.6067 14.8801C12.6698 14.8801 12.734 14.8701 12.7972 14.8492C13.1143 14.744 13.2862 14.4016 13.1811 14.0845C13.0069 13.5592 12.8303 12.9559 12.6528 12.2819L12.7474 12.3045C14.3034 12.6771 15.5469 13.741 16.1588 15.2235C16.7572 16.6734 16.6324 18.2636 15.8164 19.5858C15.7914 19.6263 15.766 19.6664 15.7399 19.7062C15.5567 19.9858 15.6348 20.3608 15.9143 20.5439C16.0166 20.611 16.1316 20.643 16.2454 20.643C16.4426 20.643 16.6359 20.5467 16.752 20.3695C16.784 20.3207 16.8153 20.2714 16.8462 20.2216C17.1782 19.6836 17.4183 19.1104 17.5664 18.5196C18.2682 17.0947 19.3431 15.8223 20.6764 14.839C21.1111 14.5186 21.5555 14.0094 21.9136 13.4305C22.2528 13.4888 22.5995 13.5186 22.9507 13.5186C23.3592 13.5186 23.7615 13.4782 24.1532 13.3997C23.6494 15.2146 23.227 16.803 22.8954 18.1309C22.1209 21.2309 20.0724 25.2008 18.2571 26.1698C17.8797 26.3713 17.5514 26.4212 17.2543 26.3219C8.51715 22.3167 6.75748 18.1706 6.40643 16.5729C6.33993 16.2702 6.05725 16.0704 5.75618 16.1005C4.29183 15.7308 3.02794 14.8258 2.19073 13.5455C1.32327 12.2189 1.01742 10.6288 1.32968 9.06823C1.39521 8.74054 1.18278 8.4218 0.85508 8.35621C0.527505 8.2908 0.208582 8.50311 0.143055 8.83081C-0.231774 10.7045 0.135734 12.614 1.17794 14.2078C2.15703 15.705 3.62416 16.7747 5.32798 17.2392C5.6169 18.2407 6.27174 19.66 7.73911 21.2941C9.7664 23.5517 12.807 25.6174 16.7765 27.4341C16.7918 27.4412 16.8075 27.4475 16.8234 27.4532C17.0641 27.5399 17.3105 27.5831 17.5618 27.5831C17.9722 27.5831 18.3955 27.4676 18.8269 27.2373C20.1626 26.5244 21.3005 24.837 22.0199 23.5469C22.9061 21.9577 23.6531 20.0906 24.0694 18.4242C24.4453 16.9193 24.939 15.0753 25.5374 12.9415C26.1581 12.6477 26.7302 12.246 27.2302 11.7459C29.5899 9.38619 29.5899 5.54665 27.2302 3.18689ZM22.9508 12.3084C21.6574 12.3084 20.4415 11.8048 19.527 10.8902C18.6124 9.97569 18.1088 8.75978 18.1088 7.46642C18.1088 6.17306 18.6124 4.95709 19.527 4.04261C20.4709 3.09867 21.7108 2.62667 22.9508 2.62667C24.1907 2.62667 25.4306 3.09867 26.3746 4.04255C28.2625 5.9305 28.2625 9.00234 26.3746 10.8902C25.46 11.8048 24.2441 12.3084 22.9508 12.3084Z" fill="#902757"/>
<path d="M21.8298 6.34536C21.2117 6.96348 21.2117 7.96932 21.8298 8.58756C22.1389 8.89662 22.5448 9.05115 22.9508 9.05115C23.3568 9.05115 23.7628 8.89662 24.0719 8.58756C24.6901 7.96938 24.6901 6.96354 24.0719 6.34542C23.4539 5.72724 22.448 5.72724 21.8298 6.34536ZM23.2163 7.73183C23.0699 7.87814 22.8318 7.8782 22.6855 7.73183C22.5392 7.58547 22.5392 7.34738 22.6855 7.20102C22.7587 7.12787 22.8548 7.09127 22.951 7.09127C23.047 7.09127 23.1432 7.12781 23.2163 7.20102C23.3626 7.34738 23.3626 7.58547 23.2163 7.73183Z" fill="#902757"/>
<path d="M26.0441 4.37332C24.3386 2.6678 21.5635 2.6678 19.858 4.37332C18.1525 6.07883 18.1525 8.8539 19.858 10.5594C20.7108 11.4122 21.8309 11.8386 22.9511 11.8386C24.0713 11.8386 25.1913 11.4122 26.0442 10.5594C27.7496 8.8539 27.7496 6.07883 26.0441 4.37332ZM25.1884 9.70376C23.9547 10.9375 21.9474 10.9375 20.7137 9.70376C19.48 8.47006 19.48 6.46274 20.7137 5.22904C21.3306 4.61219 22.1408 4.3038 22.9511 4.3038C23.7614 4.3038 24.5716 4.61219 25.1884 5.22904C26.4221 6.46268 26.4221 8.47006 25.1884 9.70376Z" fill="#902757"/>
</g>
<defs>
<clipPath id="clip0">
<rect width="29" height="29" fill="white"/>
</clipPath>
</defs>
</svg>
