<svg width="22" height="18" viewBox="0 0 22 18" fill="none" xmlns="http://www.w3.org/2000/svg">
<path d="M19.9375 0.75H2.06251C0.925174 0.75 0 1.67517 0 2.81251V15.1875C0 16.3248 0.925174 17.25 2.06251 17.25H19.9375C21.0748 17.25 22 16.3248 22 15.1875V2.81251C22 1.67517 21.0748 0.75 19.9375 0.75V0.75ZM19.9375 2.12499C20.0309 2.12499 20.1198 2.14437 20.201 2.17822L11 10.1528L1.79896 2.17822C1.8802 2.14442 1.96906 2.12499 2.06247 2.12499H19.9375ZM19.9375 15.875H2.06251C1.68319 15.875 1.37499 15.5668 1.37499 15.1875V3.63092L10.5495 11.5821C10.6791 11.6942 10.8395 11.75 11 11.75C11.1605 11.75 11.3209 11.6943 11.4505 11.5821L20.625 3.63092V15.1875C20.625 15.5668 20.3168 15.875 19.9375 15.875V15.875Z" fill="black"/>
</svg>
