<svg width="30" height="30" viewBox="0 0 30 30" fill="none" xmlns="http://www.w3.org/2000/svg">
<path d="M1.875 7.5V22.5C1.87514 22.6243 1.92457 22.7434 2.01245 22.8313C2.10033 22.9192 2.21947 22.9686 2.34375 22.9688H2.8125V7.03125H2.34375C2.21947 7.03139 2.10033 7.08082 2.01245 7.1687C1.92457 7.25658 1.87514 7.37572 1.875 7.5Z" fill="#902757"/>
<path d="M17.8125 18.2812C17.8125 18.4056 17.8619 18.5248 17.9498 18.6127C18.0377 18.7006 18.1569 18.75 18.2812 18.75C18.4056 18.75 18.5248 18.7006 18.6127 18.6127C18.7006 18.5248 18.75 18.4056 18.75 18.2812V17.8125H17.8125V18.2812Z" fill="#902757"/>
<path d="M17.8122 14.0625C17.8122 13.9381 17.8616 13.8189 17.9495 13.731C18.0374 13.6431 18.1566 13.5937 18.281 13.5937C18.4053 13.5937 18.5245 13.6431 18.6124 13.731C18.7003 13.8189 18.7497 13.9381 18.7497 14.0625V14.9733C19.5411 14.8851 20.2911 14.5737 20.9122 14.0753L20.2932 13.4564C20.2053 13.3685 20.1559 13.2493 20.1559 13.125C20.1559 13.0006 20.2053 12.8814 20.2932 12.7935C20.3811 12.7056 20.5004 12.6562 20.6247 12.6562C20.749 12.6562 20.8683 12.7056 20.9562 12.7935L21.5751 13.4124C22.0734 12.7913 22.3848 12.0413 22.473 11.25H21.5622C21.4379 11.25 21.3187 11.2006 21.2307 11.1127C21.1428 11.0248 21.0935 10.9055 21.0935 10.7812C21.0935 10.6569 21.1428 10.5377 21.2307 10.4497C21.3187 10.3618 21.4379 10.3125 21.5622 10.3125H22.473C22.3848 9.52107 22.0734 8.77108 21.5751 8.14999L20.9562 8.76892C20.8683 8.85683 20.749 8.90621 20.6247 8.90621C20.5004 8.90621 20.3811 8.85683 20.2932 8.76892C20.2053 8.68101 20.1559 8.56177 20.1559 8.43745C20.1559 8.31313 20.2053 8.1939 20.2932 8.10599L20.9122 7.48706C20.2911 6.98872 19.5411 6.67729 18.7497 6.58911V7.49995C18.7497 7.62427 18.7003 7.7435 18.6124 7.83141C18.5245 7.91932 18.4053 7.9687 18.281 7.9687C18.1566 7.9687 18.0374 7.91932 17.9495 7.83141C17.8616 7.7435 17.8122 7.62427 17.8122 7.49995V6.58911C17.0208 6.67729 16.2708 6.98872 15.6497 7.48706L16.2687 8.10599C16.3566 8.1939 16.406 8.31313 16.406 8.43745C16.406 8.56177 16.3566 8.68101 16.2687 8.76892C16.1808 8.85683 16.0615 8.90621 15.9372 8.90621C15.8129 8.90621 15.6937 8.85683 15.6057 8.76892L14.9868 8.14999C14.4885 8.77108 14.1771 9.52107 14.0889 10.3125H14.9997C15.124 10.3125 15.2433 10.3618 15.3312 10.4497C15.4191 10.5377 15.4685 10.6569 15.4685 10.7812C15.4685 10.9055 15.4191 11.0248 15.3312 11.1127C15.2433 11.2006 15.124 11.25 14.9997 11.25H14.0889C14.1771 12.0413 14.4885 12.7913 14.9868 13.4124L15.6057 12.7935C15.6493 12.75 15.7009 12.7154 15.7578 12.6919C15.8147 12.6683 15.8756 12.6562 15.9372 12.6562C15.9988 12.6562 16.0597 12.6683 16.1166 12.6919C16.1735 12.7154 16.2251 12.75 16.2687 12.7935C16.3122 12.837 16.3467 12.8887 16.3703 12.9456C16.3938 13.0024 16.406 13.0634 16.406 13.125C16.406 13.1865 16.3938 13.2475 16.3703 13.3043C16.3467 13.3612 16.3122 13.4129 16.2687 13.4564L15.6497 14.0753C16.2708 14.5737 17.0208 14.8851 17.8122 14.9733V14.0625ZM17.9495 10.4497L18.887 9.51224C18.9305 9.46871 18.9822 9.43418 19.0391 9.41062C19.0959 9.38706 19.1569 9.37494 19.2185 9.37494C19.28 9.37494 19.341 9.38706 19.3978 9.41062C19.4547 9.43418 19.5064 9.46871 19.5499 9.51224C19.5934 9.55577 19.628 9.60744 19.6515 9.66431C19.6751 9.72119 19.6872 9.78214 19.6872 9.8437C19.6872 9.90526 19.6751 9.96622 19.6515 10.0231C19.628 10.08 19.5934 10.1316 19.5499 10.1752L18.6124 11.1127C18.5245 11.2006 18.4053 11.25 18.281 11.25C18.1566 11.25 18.0374 11.2006 17.9495 11.1127C17.8616 11.0248 17.8122 10.9055 17.8122 10.7812C17.8122 10.6569 17.8616 10.5376 17.9495 10.4497Z" fill="#902757"/>
<path d="M26.2502 26.25C27.176 26.25 27.9703 25.0035 28.1048 23.4375H24.3955C24.53 25.0035 25.3244 26.25 26.2502 26.25Z" fill="#902757"/>
<path d="M25.7812 27.1306V27.6563C25.7812 27.7806 25.8306 27.8998 25.9185 27.9877C26.0065 28.0756 26.1257 28.125 26.25 28.125C26.3743 28.125 26.4935 28.0756 26.5815 27.9877C26.6694 27.8998 26.7188 27.7806 26.7188 27.6563V27.1306C26.4109 27.2065 26.0891 27.2065 25.7812 27.1306Z" fill="#902757"/>
<path d="M4.21875 5.15625C4.09447 5.15639 3.97533 5.20582 3.88745 5.2937C3.79957 5.38158 3.75014 5.50072 3.75 5.625V6.09375H5.625V5.625C5.62486 5.50072 5.57543 5.38158 5.48755 5.2937C5.39967 5.20582 5.28053 5.15639 5.15625 5.15625H4.21875Z" fill="#902757"/>
<path d="M26.2502 19.6875C25.3244 19.6875 24.53 20.934 24.3955 22.5H28.1048C27.9703 20.934 27.176 19.6875 26.2502 19.6875Z" fill="#902757"/>
<path d="M26.7188 18.8069V18.2812C26.7188 18.1569 26.6694 18.0377 26.5815 17.9498C26.4935 17.8619 26.3743 17.8125 26.25 17.8125C26.1257 17.8125 26.0065 17.8619 25.9185 17.9498C25.8306 18.0377 25.7812 18.1569 25.7812 18.2812V18.8069C26.0891 18.731 26.4109 18.731 26.7188 18.8069Z" fill="#902757"/>
<path d="M8.4375 7.03125H3.75V7.96875H8.4375V7.03125Z" fill="#902757"/>
<path d="M19.2188 15.8518C18.599 15.966 17.9635 15.966 17.3438 15.8518V16.875H19.2188V15.8518Z" fill="#902757"/>
<path d="M6.5625 24.375C6.56264 24.4993 6.61207 24.6184 6.69995 24.7063C6.78783 24.7942 6.90697 24.8436 7.03125 24.8438H7.96875C8.09303 24.8436 8.21217 24.7942 8.30005 24.7063C8.38793 24.6184 8.43736 24.4993 8.4375 24.375V23.9062H6.5625V24.375Z" fill="#902757"/>
<path d="M10.3125 22.5V7.5C10.3124 7.37572 10.2629 7.25658 10.1751 7.1687C10.0872 7.08082 9.96803 7.03139 9.84375 7.03125H9.375V22.9688H9.84375C9.96803 22.9686 10.0872 22.9192 10.1751 22.8313C10.2629 22.7434 10.3124 22.6243 10.3125 22.5Z" fill="#902757"/>
<path d="M3.75 21.0938H8.4375V8.90625H3.75V21.0938ZM5.625 11.25C5.625 11.1257 5.67439 11.0065 5.76229 10.9185C5.8502 10.8306 5.96943 10.7812 6.09375 10.7812C6.21807 10.7812 6.3373 10.8306 6.42521 10.9185C6.51311 11.0065 6.5625 11.1257 6.5625 11.25V18.75C6.5625 18.8743 6.51311 18.9935 6.42521 19.0815C6.3373 19.1694 6.21807 19.2188 6.09375 19.2188C5.96943 19.2188 5.8502 19.1694 5.76229 19.0815C5.67439 18.9935 5.625 18.8743 5.625 18.75V11.25Z" fill="#902757"/>
<path d="M8.4375 22.0312H3.75V22.9688H8.4375V22.0312Z" fill="#902757"/>
<path d="M27.1875 11.25H26.7188V2.34375C26.7188 2.28219 26.7066 2.22124 26.6831 2.16436C26.6595 2.10749 26.625 2.05581 26.5815 2.01229L25.644 1.07479C25.6004 1.03126 25.5488 0.996731 25.4919 0.973176C25.435 0.94962 25.3741 0.937498 25.3125 0.9375H5.625C5.56344 0.937498 5.50249 0.94962 5.44561 0.973176C5.38874 0.996731 5.33706 1.03126 5.29354 1.07479L4.35604 2.01229C4.31251 2.05581 4.27798 2.10749 4.25443 2.16436C4.23087 2.22124 4.21875 2.28219 4.21875 2.34375V4.21875H5.15625V2.53793L5.81912 1.875H25.1184L25.7812 2.53793V11.25H25.3125C25.1882 11.25 25.069 11.2994 24.981 11.3873C24.8931 11.4752 24.8438 11.5944 24.8438 11.7188C24.8438 11.8431 24.8931 11.9623 24.981 12.0502C25.069 12.1381 25.1882 12.1875 25.3125 12.1875H25.7812V15H24.8438V14.5312C24.8438 14.4069 24.7944 14.2877 24.7065 14.1998C24.6185 14.1119 24.4993 14.0625 24.375 14.0625C24.2507 14.0625 24.1315 14.1119 24.0435 14.1998C23.9556 14.2877 23.9062 14.4069 23.9062 14.5312V16.4062C23.9062 16.5306 23.9556 16.6498 24.0435 16.7377C24.1315 16.8256 24.2507 16.875 24.375 16.875C24.4993 16.875 24.6185 16.8256 24.7065 16.7377C24.7944 16.6498 24.8438 16.5306 24.8438 16.4062V15.9375H25.7812V16.9556C26.0845 16.8481 26.4155 16.8481 26.7188 16.9556V12.1875H27.1875C27.3118 12.1875 27.431 12.1381 27.519 12.0502C27.6069 11.9623 27.6562 11.8431 27.6562 11.7188C27.6562 11.5944 27.6069 11.4752 27.519 11.3873C27.431 11.2994 27.3118 11.25 27.1875 11.25Z" fill="#902757"/>
<path d="M18.2812 19.6874C18.1215 19.6875 17.963 19.6602 17.8125 19.6068V27.462L17.1496 28.1249H8.63162L7.96875 27.462V25.7812H7.03125V27.6562C7.03125 27.7177 7.04337 27.7787 7.06693 27.8356C7.09048 27.8924 7.12501 27.9441 7.16854 27.9877L8.10604 28.9252C8.14956 28.9687 8.20124 29.0032 8.25811 29.0268C8.31499 29.0503 8.37594 29.0624 8.4375 29.0624H17.3438C17.4053 29.0624 17.4663 29.0503 17.5231 29.0268C17.58 29.0032 17.6317 28.9687 17.6752 28.9252L18.6127 27.9877C18.6562 27.9441 18.6908 27.8924 18.7143 27.8356C18.7379 27.7787 18.75 27.7177 18.75 27.6562V19.6068C18.5995 19.6602 18.441 19.6875 18.2812 19.6874Z" fill="#902757"/>
</svg>
