<svg width="18" height="18" viewBox="0 0 18 18" fill="none" xmlns="http://www.w3.org/2000/svg">
<g clip-path="url(#clip0)">
<path d="M17.65 14.3129L15.6545 12.9824L13.8806 11.8C13.5382 11.5723 13.0781 11.6469 12.8254 11.9714L11.7277 13.3825C11.4919 13.6887 11.0678 13.7767 10.7296 13.5895C9.98484 13.1752 9.10408 12.7851 7.16073 10.8392C5.21739 8.89339 4.82481 8.01513 4.41049 7.27032C4.22329 6.93219 4.31128 6.50803 4.61749 6.27228L6.02861 5.17461C6.35299 4.92191 6.4277 4.46182 6.19993 4.11944L5.05384 2.40015L3.68709 0.349997C3.45447 0.00104014 2.98879 -0.103724 2.62915 0.111957L1.0529 1.05758C0.626917 1.30856 0.313784 1.71383 0.178364 2.18939C-0.252682 3.76096 -0.339587 7.22778 5.21644 12.7838C10.7725 18.3398 14.239 18.2527 15.8105 17.8216C16.2861 17.6862 16.6914 17.3731 16.9424 16.947L17.888 15.3708C18.1037 15.0111 17.9989 14.5455 17.65 14.3129Z" fill="#AB9A80"/>
<path d="M10.241 2.79295C13.1534 2.79618 15.5135 5.15633 15.5168 8.06875C15.5168 8.24013 15.6557 8.37911 15.8271 8.37911C15.9985 8.37911 16.1375 8.24017 16.1375 8.06875C16.1339 4.81371 13.4961 2.17586 10.241 2.17227C10.0696 2.17227 9.93066 2.31121 9.93066 2.48263C9.93063 2.65398 10.0696 2.79295 10.241 2.79295Z" fill="#AB9A80"/>
<path d="M10.241 4.65504C12.1255 4.65726 13.6525 6.18436 13.6548 8.06878C13.6548 8.24016 13.7937 8.37914 13.9651 8.37914C14.1365 8.37914 14.2755 8.2402 14.2755 8.06878C14.2729 5.84169 12.4681 4.0369 10.241 4.03433C10.0696 4.03433 9.93066 4.17327 9.93066 4.34469C9.93066 4.51611 10.0696 4.65504 10.241 4.65504Z" fill="#AB9A80"/>
<path d="M10.241 6.51699C11.0976 6.51801 11.7917 7.21213 11.7927 8.0687C11.7927 8.24009 11.9316 8.37906 12.103 8.37906C12.2744 8.37906 12.4134 8.24012 12.4134 8.0687C12.412 6.8695 11.4402 5.89769 10.241 5.89632C10.0696 5.89632 9.93066 6.03525 9.93066 6.20667C9.93063 6.37806 10.0696 6.51699 10.241 6.51699Z" fill="#AB9A80"/>
</g>
<defs>
<clipPath id="clip0">
<rect width="18" height="18" fill="white"/>
</clipPath>
</defs>
</svg>
