<?xml version="1.0" encoding="utf-8"?><svg width="28" height="28" xmlns="http://www.w3.org/2000/svg" viewBox="0 0 28 28"><path d="M21.466 14.31a5.851 5.851 0 01-1.005 3.421c-1.34 2.012-4.006 2.802-6.461 2.802-2.427 0-5.144-.8-6.461-2.802a5.851 5.851 0 01-1.006-3.422 9.6 9.6 0 013.983-7.567 6.512 6.512 0 011.573-.808 5.637 5.637 0 013.821 0 6.515 6.515 0 011.573.808 9.6 9.6 0 013.983 7.567zM18.485 3.799l-.588 1.563a7.744 7.744 0 00-1.559-.756c-.046-.014-.088-.033-.135-.042l.532-1.423a.938.938 0 00-.107-.887.867.867 0 00-.724-.387h-3.808a.867.867 0 00-.723.387.938.938 0 00-.107.887l.532 1.423c-.047.01-.089.028-.136.042a7.983 7.983 0 00-1.558.751L9.516 3.8a2.837 2.837 0 01.322-2.609A2.74 2.74 0 0112.096 0h3.808a2.74 2.74 0 012.259 1.19c.528.764.648 1.739.322 2.609zM27.534 21.933a.936.936 0 01-.934.934c-.331 0-.705 0-.873.018l-.098.136c-.245.331-.51.648-.793.947a11.2 11.2 0 01-1.395 1.246 12.629 12.629 0 01-2.361 1.405C18.297 27.902 14.956 28 14 28c-.957 0-4.298-.098-7.08-1.381-2.062-.948-3.476-2.026-4.32-3.3a4.823 4.823 0 00-.3-.424c-.299-.029-.6-.038-.9-.028A.933.933 0 011.4 21c1.615 0 1.965.093 2.753 1.288.64.961 1.834 1.848 3.547 2.637 2.44 1.12 5.437 1.208 6.3 1.208.864 0 3.86-.088 6.3-1.208.714-.326 1.39-.728 2.016-1.2a9.178 9.178 0 001.162-1.036c.235-.246.453-.508.653-.784C24.803 21 25.22 21 26.601 21a.936.936 0 01.933.933z"/><path d="M27.534 17.267a.936.936 0 01-.934.933h-1.535a2.902 2.902 0 00-1.666.415c-.556.42-1.039.93-1.428 1.508a7.107 7.107 0 01-2.837 2.258 13.503 13.503 0 01-5.134.952c-1.757.02-3.5-.303-5.133-.952a7.107 7.107 0 01-2.838-2.258 6.288 6.288 0 00-1.428-1.508 2.902 2.902 0 00-1.666-.415H1.4a.933.933 0 110-1.867h1.535a4.71 4.71 0 012.73.747c.553.4 1.048.874 1.47 1.41 1.4 2.127 4.284 2.977 6.865 2.977 2.609 0 5.442-.84 6.865-2.978a7.356 7.356 0 011.47-1.41 4.71 4.71 0 012.73-.746H26.6a.936.936 0 01.933.934z"/><path d="M3.266 18.68v2.082a2.879 2.879 0 00-.933-.2v-1.895h.602c.117 0 .224.004.331.014zM6.066 20.92v2.567a6.852 6.852 0 01-.933-.756v-2.996c.183.208.355.426.513.654.13.185.27.363.42.532zM8.867 22.89v1.993a9.466 9.466 0 01-.933-.369v-2.09c.26.149.508.275.737.382l.196.084zM11.667 23.623v1.885a12.43 12.43 0 01-.934-.15v-1.903c.313.07.626.126.934.168zM14.466 23.79v1.872c-.19.005-.35.005-.466.005-.117 0-.275 0-.467-.01v-1.866c.164.004.318.01.467.01.15 0 .303-.006.466-.01zM17.266 23.455v1.904c-.322.065-.634.112-.933.149v-1.885c.308-.042.62-.098.933-.168zM20.066 22.423v2.091a9.46 9.46 0 01-.933.369V22.89l.196-.084c.229-.107.476-.233.737-.383zM22.867 19.735v2.908a8.506 8.506 0 01-.835.709c-.033.023-.066.051-.098.07v-2.501c.15-.17.29-.347.42-.532.158-.228.33-.446.513-.654zM25.667 18.667v1.885c-.322.01-.639.08-.934.21v-2.081c.108-.01.215-.014.332-.014h.602z"/></svg>