<?xml version="1.0" encoding="utf-8"?><svg width="18" height="11" xmlns="http://www.w3.org/2000/svg" viewBox="0 0 18 11"><path fill-rule="evenodd" clip-rule="evenodd" d="M9.028 9.982h.981s.296-.032.448-.195c.139-.15.134-.431.134-.431s-.019-1.317.592-1.51c.603-.192 1.376 1.272 2.196 1.834.62.426 1.09.333 1.09.333l2.193-.03s1.146-.071.603-.973c-.045-.074-.317-.667-1.63-1.886-1.374-1.275-1.19-1.07.465-3.276 1.008-1.344 1.412-2.164 1.286-2.515-.12-.335-.862-.247-.862-.247l-2.468.016s-.183-.025-.319.056c-.132.08-.218.265-.218.265s-.39 1.04-.911 1.924c-1.1 1.866-1.539 1.965-1.718 1.849-.418-.27-.314-1.085-.314-1.664 0-1.808.275-2.562-.534-2.758C9.774.71 9.576.667 8.89.66 8.01.65 7.264.663 6.842.87c-.28.137-.497.443-.365.46.163.023.533.1.728.367.253.344.244 1.117.244 1.117s.146 2.129-.339 2.393c-.333.182-.789-.189-1.769-1.882-.502-.867-.88-1.826-.88-1.826s-.074-.179-.204-.275c-.158-.116-.38-.153-.38-.153l-2.345.016s-.352.01-.481.163c-.115.136-.01.417-.01.417s1.837 4.296 3.916 6.46c1.906 1.986 4.07 1.855 4.07 1.855z"/></svg>