<?xml version="1.0" encoding="utf-8"?><svg width="28" height="27" xmlns="http://www.w3.org/2000/svg" viewBox="0 0 28 27"><g clip-path="url(#aclip0)"><path d="M8.714 16.91h14.37a.79.79 0 00.762-.556l3.17-10.728a.746.746 0 00-.13-.672.802.802 0 00-.632-.305H6.887L6.32 2.184a.787.787 0 00-.773-.6H.792A.78.78 0 000 2.35a.78.78 0 00.792.766h4.119l2.86 12.45c-.841.355-1.432 1.167-1.432 2.11 0 1.268 1.066 2.299 2.377 2.299h14.368a.78.78 0 00.793-.766.78.78 0 00-.793-.767H8.716a.78.78 0 01-.792-.766.78.78 0 01.79-.766zm16.49-10.728l-2.717 9.195H9.352L7.239 6.182h17.964z"/><path d="M7.924 22.274c0 1.267 1.066 2.299 2.377 2.299 1.31 0 2.377-1.032 2.377-2.3 0-1.267-1.067-2.298-2.377-2.298-1.311 0-2.377 1.031-2.377 2.299zm2.377-.767a.78.78 0 01.792.767.78.78 0 01-.792.766.78.78 0 01-.793-.766.78.78 0 01.793-.767zM19.122 22.274c0 1.267 1.067 2.299 2.377 2.299 1.311 0 2.378-1.032 2.378-2.3 0-1.267-1.067-2.298-2.378-2.298-1.31 0-2.377 1.031-2.377 2.299zm2.377-.767a.78.78 0 01.793.767.78.78 0 01-.793.766.78.78 0 01-.792-.766.78.78 0 01.792-.767z"/></g><defs><clipPath id="aclip0"><path d="M0 0h27.046v26.156H0z"/></clipPath></defs></svg>