<?xml version="1.0" encoding="utf-8"?><svg width="25" height="25" xmlns="http://www.w3.org/2000/svg" viewBox="0 0 25 25"><path d="M17.188 0H7.813A7.813 7.813 0 000 7.813v9.375A7.813 7.813 0 007.813 25h9.375A7.813 7.813 0 0025 17.187V7.813A7.813 7.813 0 0017.187 0zm5.468 17.188a5.475 5.475 0 01-5.468 5.468H7.813a5.475 5.475 0 01-5.47-5.468V7.813a5.475 5.475 0 015.47-5.47h9.375a5.475 5.475 0 015.468 5.47v9.375z"/><path d="M12.5 6.25a6.25 6.25 0 100 12.5 6.25 6.25 0 000-12.5zm0 10.156A3.912 3.912 0 018.594 12.5 3.91 3.91 0 0112.5 8.594a3.91 3.91 0 013.906 3.906 3.912 3.912 0 01-3.906 3.906zM19.219 6.614a.833.833 0 100-1.666.833.833 0 000 1.666z"/></svg>