<?xml version="1.0" encoding="utf-8"?><svg width="31" height="23" xmlns="http://www.w3.org/2000/svg" viewBox="0 0 31 23"><path d="M29.683 2.897c-.841-1.495-1.754-1.77-3.612-1.875C24.215.896 19.547.844 15.504.844c-4.051 0-8.72.052-10.575.176-1.854.107-2.769.38-3.617 1.877C.446 4.391 0 6.965 0 11.494v.016c0 4.51.446 7.103 1.312 8.58.848 1.497 1.76 1.768 3.615 1.894 1.856.108 6.526.172 10.577.172 4.043 0 8.71-.064 10.569-.17 1.858-.126 2.77-.397 3.611-1.893.874-1.479 1.316-4.07 1.316-8.581v-.01-.006c0-4.532-.442-7.105-1.317-8.599zM11.625 17.313V5.688l9.688 5.813-9.688 5.813z"/></svg>