<?xml version="1.0" encoding="utf-8"?><svg width="28" height="28" xmlns="http://www.w3.org/2000/svg" viewBox="0 0 28 28"><g clip-path="url(#cclip0)"><path d="M26.144 27.08L24.016 6.814a.834.834 0 00-.83-.746h-4v-.912A5.162 5.162 0 0014.032 0a5.162 5.162 0 00-5.156 5.156v.912h-4a.833.833 0 00-.828.746L1.919 27.08a.835.835 0 00.828.92h22.567a.833.833 0 00.83-.92zM10.542 5.156a3.493 3.493 0 013.49-3.49 3.493 3.493 0 013.488 3.49v.912h-6.978v-.912zm-6.87 21.177L5.627 7.734h3.25v1.837a.833.833 0 001.666 0V7.734h6.978v1.837a.833.833 0 001.667 0V7.734h3.25l1.952 18.6H3.673z"/></g><defs><clipPath id="cclip0"><path d="M0 0h28v28H0z"/></clipPath></defs></svg>