<?xml version="1.0" encoding="utf-8"?><svg width="31" height="25" xmlns="http://www.w3.org/2000/svg" viewBox="0 0 31 25"><path d="M29.969 4.102a3.333 3.333 0 00-2.446-1.032H22.63v-.059c0-.736-.294-1.443-.795-1.915A2.696 2.696 0 0019.92.3h-8.84a2.714 2.714 0 00-2.74 2.711v.06H3.476c-.972 0-1.827.382-2.446 1.03A3.503 3.503 0 000 6.549v14.674c0 .973.383 1.827 1.031 2.446A3.503 3.503 0 003.477 24.7h24.046c.972 0 1.827-.383 2.446-1.032A3.503 3.503 0 0031 21.223V6.547c0-.973-.383-1.827-1.031-2.446zm-.501 17.12h-.03c0 .53-.206 1.002-.56 1.356-.353.354-.825.56-1.355.56H3.477c-.53 0-1.002-.206-1.355-.56a1.892 1.892 0 01-.56-1.355V6.547c0-.53.206-1.002.56-1.356.353-.354.825-.56 1.355-.56h5.687a.792.792 0 00.796-.795v-.855c0-.324.118-.619.324-.825.207-.206.501-.324.825-.324h8.811c.324 0 .619.118.825.324.206.206.324.5.324.825v.855c0 .442.354.795.796.795h5.687c.53 0 1.002.206 1.356.56.353.354.56.825.56 1.356v14.674z"/><path d="M15.5 6.636c-2.004 0-3.83.825-5.127 2.122a7.191 7.191 0 00-2.122 5.127c0 2.004.825 3.83 2.122 5.127a7.19 7.19 0 005.127 2.122c2.004 0 3.83-.825 5.127-2.122a7.191 7.191 0 002.122-5.127c0-2.004-.825-3.83-2.122-5.127A7.262 7.262 0 0015.5 6.636zm4.008 11.286c-1.032 1.002-2.446 1.65-4.008 1.65-1.562 0-2.976-.648-4.008-1.65a5.634 5.634 0 01-1.65-4.008c0-1.561.649-2.976 1.65-4.007a5.633 5.633 0 014.008-1.65c1.562 0 2.976.648 4.008 1.65a5.633 5.633 0 011.65 4.008c.03 1.561-.619 2.976-1.65 4.007zM25.99 9.494a1.444 1.444 0 100-2.888 1.444 1.444 0 000 2.888z"/></svg>