<?xml version="1.0" encoding="utf-8"?><svg width="23" height="23" xmlns="http://www.w3.org/2000/svg" viewBox="0 0 23 23"><path fill-rule="evenodd" clip-rule="evenodd" d="M19.127 3.841A10.616 10.616 0 0011.57.708C5.679.708.886 5.5.884 11.392c0 1.883.491 3.721 1.426 5.341L.794 22.27l5.665-1.486c1.56.852 3.317 1.3 5.106 1.3h.004c5.889 0 10.682-4.793 10.685-10.684a10.62 10.62 0 00-3.127-7.559zm-7.558 16.44h-.004a8.871 8.871 0 01-4.52-1.239l-.324-.192-3.361.882.897-3.278-.211-.336a8.858 8.858 0 01-1.358-4.726c.002-4.896 3.986-8.88 8.884-8.88a8.82 8.82 0 016.279 2.604A8.828 8.828 0 0120.45 11.4c-.002 4.897-3.986 8.881-8.881 8.881zm4.871-6.652c-.267-.134-1.58-.78-1.824-.869-.245-.089-.423-.133-.6.134-.179.267-.69.869-.846 1.047-.156.178-.312.2-.579.067-.267-.134-1.127-.416-2.147-1.326-.793-.707-1.329-1.582-1.485-1.849-.155-.267-.001-.398.117-.545.29-.359.579-.735.668-.913.089-.178.044-.334-.023-.468-.066-.133-.6-1.447-.823-1.982-.216-.52-.436-.45-.6-.458-.156-.008-.334-.01-.512-.01a.98.98 0 00-.712.334c-.245.268-.934.914-.934 2.228s.956 2.583 1.09 2.761c.133.179 1.882 2.875 4.56 4.032.638.275 1.135.439 1.523.562.64.203 1.221.175 1.681.106.513-.077 1.58-.646 1.802-1.27.223-.623.223-1.158.156-1.27-.067-.11-.245-.177-.512-.311z"/></svg>