<?xml version="1.0" encoding="utf-8"?><svg width="29" height="29" xmlns="http://www.w3.org/2000/svg" viewBox="0 0 29 29"><g clip-path="url(#oclip0)"><path d="M27.23 3.187a6.059 6.059 0 00-8.559 0 6.013 6.013 0 00-1.772 4.28c0 1.616.63 3.136 1.772 4.279a6.039 6.039 0 002.02 1.338 3.62 3.62 0 01-.733.781c-.873.644-1.646 1.4-2.296 2.238a6.185 6.185 0 00-.385-1.341 6.081 6.081 0 00-4.248-3.634l-.704-.169A8.372 8.372 0 005.17 4.377a.605.605 0 00-.148 1.2 7.158 7.158 0 016.082 5.48c.31 1.337.621 2.484.927 3.408a.605.605 0 001.15-.38 30.335 30.335 0 01-.53-1.803l.095.023a4.885 4.885 0 013.412 2.918 4.76 4.76 0 01-.42 4.483.605.605 0 101.013.663c.032-.048.063-.098.094-.147a6.03 6.03 0 00.72-1.702c.702-1.425 1.777-2.698 3.11-3.681.435-.32.88-.83 1.238-1.409a6.12 6.12 0 002.24-.03 192.258 192.258 0 00-1.259 4.73c-.774 3.1-2.823 7.07-4.638 8.04-.377.201-.706.251-1.003.152-8.737-4.005-10.497-8.151-10.848-9.75a.605.605 0 00-.65-.471 6.009 6.009 0 01-3.565-2.555 5.987 5.987 0 01-.861-4.478.605.605 0 00-1.187-.237 7.19 7.19 0 001.035 5.377 7.216 7.216 0 004.15 3.031c.289 1.002.944 2.421 2.411 4.055 2.027 2.258 5.068 4.323 9.037 6.14a2.164 2.164 0 00.785.149c.411 0 .834-.115 1.266-.346 1.336-.713 2.473-2.4 3.193-3.69.886-1.59 1.633-3.456 2.05-5.123.375-1.505.869-3.349 1.467-5.482a6.059 6.059 0 001.693-9.755zm-4.28 9.121a4.81 4.81 0 01-3.423-1.418 4.81 4.81 0 01-1.418-3.424 4.81 4.81 0 011.418-3.423 4.827 4.827 0 013.424-1.416c1.24 0 2.48.472 3.424 1.416a4.848 4.848 0 010 6.847 4.81 4.81 0 01-3.424 1.418z"/><path d="M21.83 6.345a1.587 1.587 0 000 2.243c.309.309.715.463 1.12.463a1.587 1.587 0 001.121-2.706 1.587 1.587 0 00-2.241 0zm1.386 1.387a.376.376 0 11-.53-.532.376.376 0 01.53.532z"/><path d="M26.044 4.373a4.38 4.38 0 00-6.186 0 4.38 4.38 0 000 6.186 4.36 4.36 0 003.093 1.28 4.36 4.36 0 003.093-1.28 4.38 4.38 0 000-6.186zm-.856 5.33a3.168 3.168 0 01-4.474 0 3.168 3.168 0 010-4.474 3.154 3.154 0 012.237-.925c.81 0 1.62.308 2.237.925a3.168 3.168 0 010 4.475z"/></g><defs><clipPath id="oclip0"><path d="M0 0h29v29H0z"/></clipPath></defs></svg>