<?xml version="1.0" encoding="utf-8"?><svg width="21" height="33" xmlns="http://www.w3.org/2000/svg" viewBox="0 0 21 33"><path d="M20.906 10.719a1.735 1.735 0 10-3.468 0v6.937a.578.578 0 01-.579.578 3.395 3.395 0 00-2.232.822 2.82 2.82 0 00-.443.441 3.421 3.421 0 00-.793 2.206h-1.157a4.567 4.567 0 011.058-2.94 3.88 3.88 0 01.603-.6 4.49 4.49 0 012.386-1.05V10.72a2.879 2.879 0 011.157-2.298V5.516a1.734 1.734 0 10-3.47 0v3.468h-1.155V2.047a1.734 1.734 0 10-3.47 0v5.781H8.189V5.516a1.734 1.734 0 10-3.47 0v4.625H3.564V8.406a1.734 1.734 0 00-3.47 0V20.99l2.834 5.659c.039.08.058.169.057.258v1.157H16.86v-1.157c0-.11.032-.217.09-.31l3.957-6.217v-9.66zM10.5 19.969a3.47 3.47 0 110-6.939 3.47 3.47 0 010 6.939zm.578 1.156v1.156H9.922v-1.156h1.156zm-3.44-.946l-.817.818-.818-.818.818-.817.817.817zm-1.635-7.358l.818-.818.817.818-.817.817-.818-.817zm3.919-.946v-1.156h1.156v1.156H9.922zm4.257 1.763l-.817-.817.817-.818.818.818-.818.817zm-1.95 10.46a.578.578 0 01-.573.496H9.344a.578.578 0 01-.573-.496l-.221-1.55a6.275 6.275 0 01-.948-.393l-1.252.94a.579.579 0 01-.755-.055L3.96 21.405a.578.578 0 01-.054-.755l.94-1.252a6.284 6.284 0 01-.393-.948l-1.55-.221a.578.578 0 01-.497-.573v-2.312a.578.578 0 01.496-.573l1.55-.221c.106-.326.237-.643.393-.948l-.94-1.252a.578.578 0 01.055-.755L5.595 9.96a.578.578 0 01.755-.054l1.252.939c.305-.157.622-.288.948-.392l.221-1.55a.578.578 0 01.573-.497h2.312a.578.578 0 01.573.496l.221 1.55a6.3 6.3 0 01.948.393l1.252-.94a.578.578 0 01.755.055l.707.706-.818.817-.351-.351-1.151.862a.578.578 0 01-.642.035 5.12 5.12 0 00-1.362-.564.578.578 0 01-.43-.479l-.203-1.424h-1.31l-.203 1.424a.578.578 0 01-.43.48 5.12 5.12 0 00-1.362.563.578.578 0 01-.642-.035l-1.15-.862-.926.925.863 1.15a.578.578 0 01.035.642 5.159 5.159 0 00-.565 1.363.578.578 0 01-.478.429l-1.425.204v1.31l1.424.203a.578.578 0 01.479.43c.122.478.312.937.564 1.362a.578.578 0 01-.035.642l-.862 1.15.925.926 1.15-.863a.578.578 0 01.642-.034 5.12 5.12 0 001.362.563.578.578 0 01.43.479l.204 1.424h1.31l.203-1.423 1.145.163-.274 1.92zm-6.354-8.176v1.156H4.719v-1.156h1.156z"/><path d="M10.5 18.813a2.312 2.312 0 100-4.625 2.312 2.312 0 000 4.624zM17.438 29.219H2.405v3.468h15.031V29.22z"/></svg>