<?xml version="1.0" encoding="utf-8"?><svg width="30" height="30" xmlns="http://www.w3.org/2000/svg" viewBox="0 0 30 30"><path d="M1.875 7.5v15a.47.47 0 00.469.469h.469V7.03h-.47a.47.47 0 00-.468.469zM17.813 18.281a.469.469 0 10.937 0v-.468h-.938v.468zM17.812 14.063a.469.469 0 11.938 0v.91a4.198 4.198 0 002.162-.898l-.619-.619a.469.469 0 11.663-.662l.62.618c.497-.62.809-1.37.897-2.162h-.91a.47.47 0 010-.938h.91a4.199 4.199 0 00-.898-2.162l-.619.619a.469.469 0 01-.663-.663l.62-.619a4.198 4.198 0 00-2.163-.898v.91a.469.469 0 01-.938.001v-.91c-.791.087-1.541.399-2.162.897l.619.619a.469.469 0 11-.663.663l-.62-.619a4.199 4.199 0 00-.897 2.162h.91a.469.469 0 110 .938h-.91c.088.791.4 1.541.898 2.162l.619-.619a.469.469 0 01.663.663l-.62.62c.622.498 1.372.81 2.163.897v-.91zm.137-3.613l.938-.938a.468.468 0 11.663.663l-.938.938a.469.469 0 11-.662-.663zM26.25 26.25c.926 0 1.72-1.247 1.855-2.813h-3.71c.135 1.566.93 2.813 1.855 2.813zM25.781 27.13v.526a.469.469 0 00.938 0v-.525c-.308.075-.63.075-.938 0zM4.219 5.156a.47.47 0 00-.469.469v.469h1.875v-.469a.47.47 0 00-.469-.469H4.22zM26.25 19.688c-.926 0-1.72 1.246-1.855 2.812h3.71c-.135-1.566-.929-2.813-1.855-2.813zM26.719 18.807v-.526a.469.469 0 00-.938 0v.526c.308-.076.63-.076.938 0zM8.438 7.031H3.75v.938h4.688V7.03zM19.219 15.852a5.174 5.174 0 01-1.875 0v1.023h1.875v-1.023zM6.563 24.375a.47.47 0 00.468.469h.938a.47.47 0 00.468-.469v-.469H6.563v.469zM10.313 22.5v-15a.47.47 0 00-.47-.469h-.468V22.97h.469a.47.47 0 00.469-.469zM3.75 21.094h4.688V8.906H3.75v12.188zm1.875-9.844a.47.47 0 01.938 0v7.5a.47.47 0 01-.938 0v-7.5zM8.438 22.031H3.75v.938h4.688v-.938z"/><path d="M27.188 11.25h-.47V2.344a.47.47 0 00-.137-.332l-.937-.937a.47.47 0 00-.331-.137H5.625a.469.469 0 00-.331.137l-.938.937a.469.469 0 00-.137.332v1.875h.937V2.538l.663-.663h19.3l.662.663v8.712h-.468a.47.47 0 000 .938h.468V15h-.937v-.469a.469.469 0 00-.938 0v1.875a.469.469 0 10.938 0v-.468h.937v1.018c.303-.108.635-.108.938 0v-4.768h.468a.47.47 0 000-.938zM18.281 19.687c-.16 0-.318-.027-.468-.08v7.855l-.663.663H8.632l-.663-.663v-1.68H7.03v1.874a.47.47 0 00.138.332l.937.937a.47.47 0 00.332.137h8.906a.47.47 0 00.331-.137l.938-.937a.47.47 0 00.137-.332v-8.05a1.4 1.4 0 01-.469.081z"/></svg>