<?xml version="1.0" encoding="utf-8"?><svg viewBox="0 0 30 33" xmlns="http://www.w3.org/2000/svg" xmlns:xlink="http://www.w3.org/1999/xlink"><style>:root>svg{display:none}:root>svg:target{display:block}</style><svg viewBox="0 0 28 27" id="icon__add-to-basket" xmlns="http://www.w3.org/2000/svg"><g clip-path="url(#aclip0)"><path d="M8.714 16.91h14.37a.79.79 0 00.762-.556l3.17-10.728a.746.746 0 00-.13-.672.802.802 0 00-.632-.305H6.887L6.32 2.184a.787.787 0 00-.773-.6H.792A.78.78 0 000 2.35a.78.78 0 00.792.766h4.119l2.86 12.45c-.841.355-1.432 1.167-1.432 2.11 0 1.268 1.066 2.299 2.377 2.299h14.368a.78.78 0 00.793-.766.78.78 0 00-.793-.767H8.716a.78.78 0 01-.792-.766.78.78 0 01.79-.766zm16.49-10.728l-2.717 9.195H9.352L7.239 6.182h17.964z"/><path d="M7.924 22.274c0 1.267 1.066 2.299 2.377 2.299 1.31 0 2.377-1.032 2.377-2.3 0-1.267-1.067-2.298-2.377-2.298-1.311 0-2.377 1.031-2.377 2.299zm2.377-.767a.78.78 0 01.792.767.78.78 0 01-.792.766.78.78 0 01-.793-.766.78.78 0 01.793-.767zM19.122 22.274c0 1.267 1.067 2.299 2.377 2.299 1.311 0 2.378-1.032 2.378-2.3 0-1.267-1.067-2.298-2.378-2.298-1.31 0-2.377 1.031-2.377 2.299zm2.377-.767a.78.78 0 01.793.767.78.78 0 01-.793.766.78.78 0 01-.792-.766.78.78 0 01.792-.767z"/></g><defs><clipPath id="aclip0"><path d="M0 0h27.046v26.156H0z"/></clipPath></defs></svg><svg viewBox="0 0 28 28" id="icon__carcas" xmlns="http://www.w3.org/2000/svg"><path d="M21.466 14.31a5.851 5.851 0 01-1.005 3.421c-1.34 2.012-4.006 2.802-6.461 2.802-2.427 0-5.144-.8-6.461-2.802a5.851 5.851 0 01-1.006-3.422 9.6 9.6 0 013.983-7.567 6.512 6.512 0 011.573-.808 5.637 5.637 0 013.821 0 6.515 6.515 0 011.573.808 9.6 9.6 0 013.983 7.567zM18.485 3.799l-.588 1.563a7.744 7.744 0 00-1.559-.756c-.046-.014-.088-.033-.135-.042l.532-1.423a.938.938 0 00-.107-.887.867.867 0 00-.724-.387h-3.808a.867.867 0 00-.723.387.938.938 0 00-.107.887l.532 1.423c-.047.01-.089.028-.136.042a7.983 7.983 0 00-1.558.751L9.516 3.8a2.837 2.837 0 01.322-2.609A2.74 2.74 0 0112.096 0h3.808a2.74 2.74 0 012.259 1.19c.528.764.648 1.739.322 2.609zM27.534 21.933a.936.936 0 01-.934.934c-.331 0-.705 0-.873.018l-.098.136c-.245.331-.51.648-.793.947a11.2 11.2 0 01-1.395 1.246 12.629 12.629 0 01-2.361 1.405C18.297 27.902 14.956 28 14 28c-.957 0-4.298-.098-7.08-1.381-2.062-.948-3.476-2.026-4.32-3.3a4.823 4.823 0 00-.3-.424c-.299-.029-.6-.038-.9-.028A.933.933 0 011.4 21c1.615 0 1.965.093 2.753 1.288.64.961 1.834 1.848 3.547 2.637 2.44 1.12 5.437 1.208 6.3 1.208.864 0 3.86-.088 6.3-1.208.714-.326 1.39-.728 2.016-1.2a9.178 9.178 0 001.162-1.036c.235-.246.453-.508.653-.784C24.803 21 25.22 21 26.601 21a.936.936 0 01.933.933z"/><path d="M27.534 17.267a.936.936 0 01-.934.933h-1.535a2.902 2.902 0 00-1.666.415c-.556.42-1.039.93-1.428 1.508a7.107 7.107 0 01-2.837 2.258 13.503 13.503 0 01-5.134.952c-1.757.02-3.5-.303-5.133-.952a7.107 7.107 0 01-2.838-2.258 6.288 6.288 0 00-1.428-1.508 2.902 2.902 0 00-1.666-.415H1.4a.933.933 0 110-1.867h1.535a4.71 4.71 0 012.73.747c.553.4 1.048.874 1.47 1.41 1.4 2.127 4.284 2.977 6.865 2.977 2.609 0 5.442-.84 6.865-2.978a7.356 7.356 0 011.47-1.41 4.71 4.71 0 012.73-.746H26.6a.936.936 0 01.933.934z"/><path d="M3.266 18.68v2.082a2.879 2.879 0 00-.933-.2v-1.895h.602c.117 0 .224.004.331.014zM6.066 20.92v2.567a6.852 6.852 0 01-.933-.756v-2.996c.183.208.355.426.513.654.13.185.27.363.42.532zM8.867 22.89v1.993a9.466 9.466 0 01-.933-.369v-2.09c.26.149.508.275.737.382l.196.084zM11.667 23.623v1.885a12.43 12.43 0 01-.934-.15v-1.903c.313.07.626.126.934.168zM14.466 23.79v1.872c-.19.005-.35.005-.466.005-.117 0-.275 0-.467-.01v-1.866c.164.004.318.01.467.01.15 0 .303-.006.466-.01zM17.266 23.455v1.904c-.322.065-.634.112-.933.149v-1.885c.308-.042.62-.098.933-.168zM20.066 22.423v2.091a9.46 9.46 0 01-.933.369V22.89l.196-.084c.229-.107.476-.233.737-.383zM22.867 19.735v2.908a8.506 8.506 0 01-.835.709c-.033.023-.066.051-.098.07v-2.501c.15-.17.29-.347.42-.532.158-.228.33-.446.513-.654zM25.667 18.667v1.885c-.322.01-.639.08-.934.21v-2.081c.108-.01.215-.014.332-.014h.602z"/></svg><svg viewBox="0 0 28 28" id="icon__cart" xmlns="http://www.w3.org/2000/svg"><g clip-path="url(#cclip0)"><path d="M26.144 27.08L24.016 6.814a.834.834 0 00-.83-.746h-4v-.912A5.162 5.162 0 0014.032 0a5.162 5.162 0 00-5.156 5.156v.912h-4a.833.833 0 00-.828.746L1.919 27.08a.835.835 0 00.828.92h22.567a.833.833 0 00.83-.92zM10.542 5.156a3.493 3.493 0 013.49-3.49 3.493 3.493 0 013.488 3.49v.912h-6.978v-.912zm-6.87 21.177L5.627 7.734h3.25v1.837a.833.833 0 001.666 0V7.734h6.978v1.837a.833.833 0 001.667 0V7.734h3.25l1.952 18.6H3.673z"/></g><defs><clipPath id="cclip0"><path d="M0 0h28v28H0z"/></clipPath></defs></svg><svg viewBox="0 0 22 18" id="icon__mail" xmlns="http://www.w3.org/2000/svg"><path d="M19.938.75H2.063A2.065 2.065 0 000 2.813v12.375c0 1.137.925 2.062 2.063 2.062h17.875A2.065 2.065 0 0022 15.187V2.813A2.065 2.065 0 0019.937.75zm0 1.375c.093 0 .182.02.263.053L11 10.153 1.799 2.178a.684.684 0 01.263-.053h17.875zm0 13.75H2.063a.688.688 0 01-.688-.688V3.632l9.175 7.951a.687.687 0 00.9 0l9.175-7.951v11.556c0 .38-.308.688-.688.688z"/></svg><svg viewBox="0 0 21 33" id="icon__mech" xmlns="http://www.w3.org/2000/svg"><path d="M20.906 10.719a1.735 1.735 0 10-3.468 0v6.937a.578.578 0 01-.579.578 3.395 3.395 0 00-2.232.822 2.82 2.82 0 00-.443.441 3.421 3.421 0 00-.793 2.206h-1.157a4.567 4.567 0 011.058-2.94 3.88 3.88 0 01.603-.6 4.49 4.49 0 012.386-1.05V10.72a2.879 2.879 0 011.157-2.298V5.516a1.734 1.734 0 10-3.47 0v3.468h-1.155V2.047a1.734 1.734 0 10-3.47 0v5.781H8.189V5.516a1.734 1.734 0 10-3.47 0v4.625H3.564V8.406a1.734 1.734 0 00-3.47 0V20.99l2.834 5.659c.039.08.058.169.057.258v1.157H16.86v-1.157c0-.11.032-.217.09-.31l3.957-6.217v-9.66zM10.5 19.969a3.47 3.47 0 110-6.939 3.47 3.47 0 010 6.939zm.578 1.156v1.156H9.922v-1.156h1.156zm-3.44-.946l-.817.818-.818-.818.818-.817.817.817zm-1.635-7.358l.818-.818.817.818-.817.817-.818-.817zm3.919-.946v-1.156h1.156v1.156H9.922zm4.257 1.763l-.817-.817.817-.818.818.818-.818.817zm-1.95 10.46a.578.578 0 01-.573.496H9.344a.578.578 0 01-.573-.496l-.221-1.55a6.275 6.275 0 01-.948-.393l-1.252.94a.579.579 0 01-.755-.055L3.96 21.405a.578.578 0 01-.054-.755l.94-1.252a6.284 6.284 0 01-.393-.948l-1.55-.221a.578.578 0 01-.497-.573v-2.312a.578.578 0 01.496-.573l1.55-.221c.106-.326.237-.643.393-.948l-.94-1.252a.578.578 0 01.055-.755L5.595 9.96a.578.578 0 01.755-.054l1.252.939c.305-.157.622-.288.948-.392l.221-1.55a.578.578 0 01.573-.497h2.312a.578.578 0 01.573.496l.221 1.55a6.3 6.3 0 01.948.393l1.252-.94a.578.578 0 01.755.055l.707.706-.818.817-.351-.351-1.151.862a.578.578 0 01-.642.035 5.12 5.12 0 00-1.362-.564.578.578 0 01-.43-.479l-.203-1.424h-1.31l-.203 1.424a.578.578 0 01-.43.48 5.12 5.12 0 00-1.362.563.578.578 0 01-.642-.035l-1.15-.862-.926.925.863 1.15a.578.578 0 01.035.642 5.159 5.159 0 00-.565 1.363.578.578 0 01-.478.429l-1.425.204v1.31l1.424.203a.578.578 0 01.479.43c.122.478.312.937.564 1.362a.578.578 0 01-.035.642l-.862 1.15.925.926 1.15-.863a.578.578 0 01.642-.034 5.12 5.12 0 001.362.563.578.578 0 01.43.479l.204 1.424h1.31l.203-1.423 1.145.163-.274 1.92zm-6.354-8.176v1.156H4.719v-1.156h1.156z"/><path d="M10.5 18.813a2.312 2.312 0 100-4.625 2.312 2.312 0 000 4.624zM17.438 29.219H2.405v3.468h15.031V29.22z"/></svg><svg viewBox="0 0 18 18" id="icon__name" xmlns="http://www.w3.org/2000/svg"><g clip-path="url(#fclip0)"><path d="M8.872 8.67a4.195 4.195 0 003.065-1.27 4.195 4.195 0 001.27-3.065c0-1.19-.427-2.222-1.27-3.065A4.196 4.196 0 008.872 0a4.195 4.195 0 00-3.066 1.27 4.195 4.195 0 00-1.27 3.065c0 1.192.428 2.223 1.27 3.066a4.196 4.196 0 003.066 1.27zM16.458 13.841c-.025-.35-.074-.733-.146-1.137a8.95 8.95 0 00-.28-1.144 5.642 5.642 0 00-.47-1.066 4.025 4.025 0 00-.709-.924 3.125 3.125 0 00-1.018-.64 3.52 3.52 0 00-1.3-.235c-.184 0-.362.075-.705.299-.211.137-.458.297-.734.473-.236.15-.555.29-.95.418a3.77 3.77 0 01-1.161.188c-.386 0-.777-.063-1.162-.188a4.196 4.196 0 01-.949-.418c-.273-.175-.52-.334-.735-.474-.342-.223-.52-.298-.704-.298-.468 0-.905.079-1.3.235a3.123 3.123 0 00-1.018.64 4.023 4.023 0 00-.709.924 5.658 5.658 0 00-.47 1.066 8.98 8.98 0 00-.28 1.144 10.67 10.67 0 00-.145 1.137c-.024.345-.036.702-.036 1.063 0 .94.298 1.7.887 2.262.582.553 1.352.834 2.288.834h8.667c.936 0 1.705-.28 2.287-.834.59-.56.888-1.322.888-2.262 0-.362-.012-.72-.036-1.063z"/></g><defs><clipPath id="fclip0"><path d="M0 0h18v18H0z"/></clipPath></defs></svg><svg viewBox="0 0 29 29" id="icon__phone" xmlns="http://www.w3.org/2000/svg"><path d="M28.24 22.372l-5.87-3.915a1.713 1.713 0 00-2.294.373l-1.71 2.199a.73.73 0 01-.937.197l-.325-.18c-1.079-.587-2.42-1.319-5.123-4.023-2.703-2.704-3.436-4.046-4.024-5.122l-.178-.326a.732.732 0 01.193-.94l2.197-1.71c.703-.55.865-1.548.373-2.293L6.628.762A1.704 1.704 0 004.33.245L1.876 1.719A3.462 3.462 0 00.297 3.77c-.884 3.22-.219 8.778 7.969 16.966C14.779 27.247 19.627 29 22.96 29a8.56 8.56 0 002.271-.297 3.46 3.46 0 002.05-1.579l1.475-2.453a1.704 1.704 0 00-.517-2.298zm-.317 1.802l-1.472 2.455a2.497 2.497 0 01-1.474 1.142c-2.973.817-8.167.14-16.028-7.72C1.09 12.191.413 6.997 1.23 4.024a2.501 2.501 0 011.144-1.476l2.455-1.472a.74.74 0 01.997.224L7.95 4.492 9.736 7.17a.744.744 0 01-.162.996L7.377 9.874a1.691 1.691 0 00-.448 2.17l.175.318c.617 1.132 1.385 2.542 4.189 5.344 2.803 2.803 4.212 3.571 5.344 4.189l.317.175c.735.412 1.66.22 2.171-.448l1.71-2.198a.744.744 0 01.995-.16l5.87 3.914c.329.218.428.658.223.996zM16.433 4.836a8.225 8.225 0 018.215 8.215.483.483 0 10.967 0 9.192 9.192 0 00-9.182-9.182.483.483 0 100 .967z"/><path d="M16.433 7.735a5.322 5.322 0 015.316 5.316.483.483 0 00.966 0 6.29 6.29 0 00-6.282-6.282.483.483 0 100 .966z"/><path d="M16.433 10.635a2.42 2.42 0 012.416 2.416.483.483 0 10.967 0 3.387 3.387 0 00-3.383-3.383.483.483 0 100 .967z"/></svg><svg viewBox="0 0 18 18" id="icon__phone-form" xmlns="http://www.w3.org/2000/svg"><g clip-path="url(#hclip0)"><path d="M17.65 14.313l-1.995-1.33L13.88 11.8a.786.786 0 00-1.056.171l-1.097 1.412a.782.782 0 01-.998.207c-.745-.415-1.626-.805-3.57-2.75-1.943-1.947-2.335-2.825-2.75-3.57a.782.782 0 01.207-.998L6.03 5.175a.786.786 0 00.17-1.056L5.055 2.4 3.687.35A.786.786 0 002.63.112l-1.576.946c-.426.25-.74.656-.875 1.131-.43 1.572-.518 5.039 5.038 10.595 5.557 5.556 9.023 5.469 10.595 5.038.475-.136.88-.449 1.131-.875l.946-1.576a.786.786 0 00-.238-1.058zM10.241 2.793a5.282 5.282 0 015.276 5.276.31.31 0 10.62 0 5.903 5.903 0 00-5.896-5.897.31.31 0 100 .62z"/><path d="M10.241 4.655a3.418 3.418 0 013.414 3.414.31.31 0 10.62 0 4.04 4.04 0 00-4.034-4.035.31.31 0 100 .621z"/><path d="M10.241 6.517c.857.001 1.55.695 1.552 1.552a.31.31 0 10.62 0 2.175 2.175 0 00-2.172-2.173.31.31 0 100 .621z"/></g><defs><clipPath id="hclip0"><path d="M0 0h18v18H0z"/></clipPath></defs></svg><svg viewBox="0 0 30 30" id="icon__pnevmo" xmlns="http://www.w3.org/2000/svg"><path d="M1.875 7.5v15a.47.47 0 00.469.469h.469V7.03h-.47a.47.47 0 00-.468.469zM17.813 18.281a.469.469 0 10.937 0v-.468h-.938v.468zM17.812 14.063a.469.469 0 11.938 0v.91a4.198 4.198 0 002.162-.898l-.619-.619a.469.469 0 11.663-.662l.62.618c.497-.62.809-1.37.897-2.162h-.91a.47.47 0 010-.938h.91a4.199 4.199 0 00-.898-2.162l-.619.619a.469.469 0 01-.663-.663l.62-.619a4.198 4.198 0 00-2.163-.898v.91a.469.469 0 01-.938.001v-.91c-.791.087-1.541.399-2.162.897l.619.619a.469.469 0 11-.663.663l-.62-.619a4.199 4.199 0 00-.897 2.162h.91a.469.469 0 110 .938h-.91c.088.791.4 1.541.898 2.162l.619-.619a.469.469 0 01.663.663l-.62.62c.622.498 1.372.81 2.163.897v-.91zm.137-3.613l.938-.938a.468.468 0 11.663.663l-.938.938a.469.469 0 11-.662-.663zM26.25 26.25c.926 0 1.72-1.247 1.855-2.813h-3.71c.135 1.566.93 2.813 1.855 2.813zM25.781 27.13v.526a.469.469 0 00.938 0v-.525c-.308.075-.63.075-.938 0zM4.219 5.156a.47.47 0 00-.469.469v.469h1.875v-.469a.47.47 0 00-.469-.469H4.22zM26.25 19.688c-.926 0-1.72 1.246-1.855 2.812h3.71c-.135-1.566-.929-2.813-1.855-2.813zM26.719 18.807v-.526a.469.469 0 00-.938 0v.526c.308-.076.63-.076.938 0zM8.438 7.031H3.75v.938h4.688V7.03zM19.219 15.852a5.174 5.174 0 01-1.875 0v1.023h1.875v-1.023zM6.563 24.375a.47.47 0 00.468.469h.938a.47.47 0 00.468-.469v-.469H6.563v.469zM10.313 22.5v-15a.47.47 0 00-.47-.469h-.468V22.97h.469a.47.47 0 00.469-.469zM3.75 21.094h4.688V8.906H3.75v12.188zm1.875-9.844a.47.47 0 01.938 0v7.5a.47.47 0 01-.938 0v-7.5zM8.438 22.031H3.75v.938h4.688v-.938z"/><path d="M27.188 11.25h-.47V2.344a.47.47 0 00-.137-.332l-.937-.937a.47.47 0 00-.331-.137H5.625a.469.469 0 00-.331.137l-.938.937a.469.469 0 00-.137.332v1.875h.937V2.538l.663-.663h19.3l.662.663v8.712h-.468a.47.47 0 000 .938h.468V15h-.937v-.469a.469.469 0 00-.938 0v1.875a.469.469 0 10.938 0v-.468h.937v1.018c.303-.108.635-.108.938 0v-4.768h.468a.47.47 0 000-.938zM18.281 19.687c-.16 0-.318-.027-.468-.08v7.855l-.663.663H8.632l-.663-.663v-1.68H7.03v1.874a.47.47 0 00.138.332l.937.937a.47.47 0 00.332.137h8.906a.47.47 0 00.331-.137l.938-.937a.47.47 0 00.137-.332v-8.05a1.4 1.4 0 01-.469.081z"/></svg><svg viewBox="0 0 29 29" id="icon__power" xmlns="http://www.w3.org/2000/svg"><g clip-path="url(#jclip0)"><path d="M27.23 3.187a6.059 6.059 0 00-8.559 0 6.013 6.013 0 00-1.772 4.28c0 1.616.63 3.136 1.772 4.279a6.039 6.039 0 002.02 1.338 3.62 3.62 0 01-.733.781c-.873.644-1.646 1.4-2.296 2.238a6.185 6.185 0 00-.385-1.341 6.081 6.081 0 00-4.248-3.634l-.704-.169A8.372 8.372 0 005.17 4.377a.605.605 0 00-.148 1.2 7.158 7.158 0 016.082 5.48c.31 1.337.621 2.484.927 3.408a.605.605 0 001.15-.38 30.335 30.335 0 01-.53-1.803l.095.023a4.885 4.885 0 013.412 2.918 4.76 4.76 0 01-.42 4.483.605.605 0 101.013.663c.032-.048.063-.098.094-.147a6.03 6.03 0 00.72-1.702c.702-1.425 1.777-2.698 3.11-3.681.435-.32.88-.83 1.238-1.409a6.12 6.12 0 002.24-.03 192.258 192.258 0 00-1.259 4.73c-.774 3.1-2.823 7.07-4.638 8.04-.377.201-.706.251-1.003.152-8.737-4.005-10.497-8.151-10.848-9.75a.605.605 0 00-.65-.471 6.009 6.009 0 01-3.565-2.555 5.987 5.987 0 01-.861-4.478.605.605 0 00-1.187-.237 7.19 7.19 0 001.035 5.377 7.216 7.216 0 004.15 3.031c.289 1.002.944 2.421 2.411 4.055 2.027 2.258 5.068 4.323 9.037 6.14a2.164 2.164 0 00.785.149c.411 0 .834-.115 1.266-.346 1.336-.713 2.473-2.4 3.193-3.69.886-1.59 1.633-3.456 2.05-5.123.375-1.505.869-3.349 1.467-5.482a6.059 6.059 0 001.693-9.755zm-4.28 9.121a4.81 4.81 0 01-3.423-1.418 4.81 4.81 0 01-1.418-3.424 4.81 4.81 0 011.418-3.423 4.827 4.827 0 013.424-1.416c1.24 0 2.48.472 3.424 1.416a4.848 4.848 0 010 6.847 4.81 4.81 0 01-3.424 1.418z"/><path d="M21.83 6.345a1.587 1.587 0 000 2.243c.309.309.715.463 1.12.463a1.587 1.587 0 001.121-2.706 1.587 1.587 0 00-2.241 0zm1.386 1.387a.376.376 0 11-.53-.532.376.376 0 01.53.532z"/><path d="M26.044 4.373a4.38 4.38 0 00-6.186 0 4.38 4.38 0 000 6.186 4.36 4.36 0 003.093 1.28 4.36 4.36 0 003.093-1.28 4.38 4.38 0 000-6.186zm-.856 5.33a3.168 3.168 0 01-4.474 0 3.168 3.168 0 010-4.474 3.154 3.154 0 012.237-.925c.81 0 1.62.308 2.237.925a3.168 3.168 0 010 4.475z"/></g><defs><clipPath id="jclip0"><path d="M0 0h29v29H0z"/></clipPath></defs></svg><svg viewBox="0 0 23 23" id="icon__whatsapp" xmlns="http://www.w3.org/2000/svg"><path fill-rule="evenodd" clip-rule="evenodd" d="M19.127 3.841A10.616 10.616 0 0011.57.708C5.679.708.886 5.5.884 11.392c0 1.883.491 3.721 1.426 5.341L.794 22.27l5.665-1.486c1.56.852 3.317 1.3 5.106 1.3h.004c5.889 0 10.682-4.793 10.685-10.684a10.62 10.62 0 00-3.127-7.559zm-7.558 16.44h-.004a8.871 8.871 0 01-4.52-1.239l-.324-.192-3.361.882.897-3.278-.211-.336a8.858 8.858 0 01-1.358-4.726c.002-4.896 3.986-8.88 8.884-8.88a8.82 8.82 0 016.279 2.604A8.828 8.828 0 0120.45 11.4c-.002 4.897-3.986 8.881-8.881 8.881zm4.871-6.652c-.267-.134-1.58-.78-1.824-.869-.245-.089-.423-.133-.6.134-.179.267-.69.869-.846 1.047-.156.178-.312.2-.579.067-.267-.134-1.127-.416-2.147-1.326-.793-.707-1.329-1.582-1.485-1.849-.155-.267-.001-.398.117-.545.29-.359.579-.735.668-.913.089-.178.044-.334-.023-.468-.066-.133-.6-1.447-.823-1.982-.216-.52-.436-.45-.6-.458-.156-.008-.334-.01-.512-.01a.98.98 0 00-.712.334c-.245.268-.934.914-.934 2.228s.956 2.583 1.09 2.761c.133.179 1.882 2.875 4.56 4.032.638.275 1.135.439 1.523.562.64.203 1.221.175 1.681.106.513-.077 1.58-.646 1.802-1.27.223-.623.223-1.158.156-1.27-.067-.11-.245-.177-.512-.311z"/></svg></svg>