<?xml version="1.0" encoding="utf-8"?><svg viewBox="0 0 29 29" xmlns="http://www.w3.org/2000/svg" xmlns:xlink="http://www.w3.org/1999/xlink"><style>:root>svg{display:none}:root>svg:target{display:block}</style><svg viewBox="0 0 28 28" id="icon__cart" xmlns="http://www.w3.org/2000/svg"><g clip-path="url(#aclip0)"><path d="M26.144 27.08L24.016 6.814a.834.834 0 00-.83-.746h-4v-.912A5.162 5.162 0 0014.032 0a5.162 5.162 0 00-5.156 5.156v.912h-4a.833.833 0 00-.828.746L1.919 27.08a.835.835 0 00.828.92h22.567a.833.833 0 00.83-.92zM10.542 5.156a3.493 3.493 0 013.49-3.49 3.493 3.493 0 013.488 3.49v.912h-6.978v-.912zm-6.87 21.177L5.627 7.734h3.25v1.837a.833.833 0 001.666 0V7.734h6.978v1.837a.833.833 0 001.667 0V7.734h3.25l1.952 18.6H3.673z"/></g><defs><clipPath id="aclip0"><path d="M0 0h28v28H0z"/></clipPath></defs></svg><svg viewBox="0 0 22 18" id="icon__mail" xmlns="http://www.w3.org/2000/svg"><path d="M19.938.75H2.063A2.065 2.065 0 000 2.813v12.375c0 1.137.925 2.062 2.063 2.062h17.875A2.065 2.065 0 0022 15.187V2.813A2.065 2.065 0 0019.937.75zm0 1.375c.093 0 .182.02.263.053L11 10.153 1.799 2.178a.684.684 0 01.263-.053h17.875zm0 13.75H2.063a.688.688 0 01-.688-.688V3.632l9.175 7.951a.687.687 0 00.9 0l9.175-7.951v11.556c0 .38-.308.688-.688.688z"/></svg><svg viewBox="0 0 29 29" id="icon__phone" xmlns="http://www.w3.org/2000/svg"><path d="M28.24 22.372l-5.87-3.915a1.713 1.713 0 00-2.294.373l-1.71 2.199a.73.73 0 01-.937.197l-.325-.18c-1.079-.587-2.42-1.319-5.123-4.023-2.703-2.704-3.436-4.046-4.024-5.122l-.178-.326a.732.732 0 01.193-.94l2.197-1.71c.703-.55.865-1.548.373-2.293L6.628.762A1.704 1.704 0 004.33.245L1.876 1.719A3.462 3.462 0 00.297 3.77c-.884 3.22-.219 8.778 7.969 16.966C14.779 27.247 19.627 29 22.96 29a8.56 8.56 0 002.271-.297 3.46 3.46 0 002.05-1.579l1.475-2.453a1.704 1.704 0 00-.517-2.298zm-.317 1.802l-1.472 2.455a2.497 2.497 0 01-1.474 1.142c-2.973.817-8.167.14-16.028-7.72C1.09 12.191.413 6.997 1.23 4.024a2.501 2.501 0 011.144-1.476l2.455-1.472a.74.74 0 01.997.224L7.95 4.492 9.736 7.17a.744.744 0 01-.162.996L7.377 9.874a1.691 1.691 0 00-.448 2.17l.175.318c.617 1.132 1.385 2.542 4.189 5.344 2.803 2.803 4.212 3.571 5.344 4.189l.317.175c.735.412 1.66.22 2.171-.448l1.71-2.198a.744.744 0 01.995-.16l5.87 3.914c.329.218.428.658.223.996zM16.433 4.836a8.225 8.225 0 018.215 8.215.483.483 0 10.967 0 9.192 9.192 0 00-9.182-9.182.483.483 0 100 .967z"/><path d="M16.433 7.735a5.322 5.322 0 015.316 5.316.483.483 0 00.966 0 6.29 6.29 0 00-6.282-6.282.483.483 0 100 .966z"/><path d="M16.433 10.635a2.42 2.42 0 012.416 2.416.483.483 0 10.967 0 3.387 3.387 0 00-3.383-3.383.483.483 0 100 .967z"/></svg><svg viewBox="0 0 23 23" id="icon__whatsapp" xmlns="http://www.w3.org/2000/svg"><path fill-rule="evenodd" clip-rule="evenodd" d="M19.127 3.841A10.616 10.616 0 0011.57.708C5.679.708.886 5.5.884 11.392c0 1.883.491 3.721 1.426 5.341L.794 22.27l5.665-1.486c1.56.852 3.317 1.3 5.106 1.3h.004c5.889 0 10.682-4.793 10.685-10.684a10.62 10.62 0 00-3.127-7.559zm-7.558 16.44h-.004a8.871 8.871 0 01-4.52-1.239l-.324-.192-3.361.882.897-3.278-.211-.336a8.858 8.858 0 01-1.358-4.726c.002-4.896 3.986-8.88 8.884-8.88a8.82 8.82 0 016.279 2.604A8.828 8.828 0 0120.45 11.4c-.002 4.897-3.986 8.881-8.881 8.881zm4.871-6.652c-.267-.134-1.58-.78-1.824-.869-.245-.089-.423-.133-.6.134-.179.267-.69.869-.846 1.047-.156.178-.312.2-.579.067-.267-.134-1.127-.416-2.147-1.326-.793-.707-1.329-1.582-1.485-1.849-.155-.267-.001-.398.117-.545.29-.359.579-.735.668-.913.089-.178.044-.334-.023-.468-.066-.133-.6-1.447-.823-1.982-.216-.52-.436-.45-.6-.458-.156-.008-.334-.01-.512-.01a.98.98 0 00-.712.334c-.245.268-.934.914-.934 2.228s.956 2.583 1.09 2.761c.133.179 1.882 2.875 4.56 4.032.638.275 1.135.439 1.523.562.64.203 1.221.175 1.681.106.513-.077 1.58-.646 1.802-1.27.223-.623.223-1.158.156-1.27-.067-.11-.245-.177-.512-.311z"/></svg></svg>