<svg width="30" height="30" viewBox="0 0 30 30" fill="none" xmlns="http://www.w3.org/2000/svg">
<path d="M27.4252 7.84693C26.9223 7.32094 26.2552 7.03125 25.5469 7.03125C25.2096 7.03125 24.882 7.09764 24.5766 7.22326C24.2736 6.10148 23.2475 5.27344 22.0312 5.27344C21.6881 5.27344 21.3604 5.34006 21.0594 5.45982C20.7544 4.34092 19.7299 3.51562 18.5156 3.51562C18.1724 3.51562 17.8448 3.58225 17.5438 3.70201C17.2388 2.58311 16.2142 1.75781 15 1.75781C14.6568 1.75781 14.3292 1.82443 14.0282 1.9442C13.7232 0.825293 12.6986 0 11.4844 0C10.2701 0 9.24557 0.825293 8.94059 1.9442C8.63959 1.82443 8.31193 1.75781 7.96875 1.75781C6.51486 1.75781 5.33203 2.94064 5.33203 4.39453V8.99883C5.05693 8.90127 4.76121 8.84766 4.45312 8.84766C2.99924 8.84766 1.81641 10.0305 1.81641 11.4844V15.8443C1.81641 17.2576 2.30848 18.639 3.20203 19.734L5.33203 22.3443V25.5469C5.33203 26.0323 5.72555 26.4258 6.21094 26.4258H12.3633V29.1211C12.3633 29.6065 12.7568 30 13.2422 30H25.5469C26.0323 30 26.4258 29.6065 26.4258 29.1211V25.6895C27.5921 22.1891 28.1836 18.5432 28.1836 14.8536V9.72656C28.1836 9.02607 27.9142 8.35857 27.4252 7.84693ZM7.08984 24.668V22.0312C7.08984 21.8288 7.01994 21.6325 6.89191 21.4756L4.56398 18.6227C3.92572 17.8406 3.57422 16.8538 3.57422 15.8443C3.57422 15.725 3.57422 15.6209 3.57422 15.5301C3.57422 15.1247 3.57422 14.9889 3.57422 14.9883C3.57422 14.4356 3.57422 13.3815 3.57422 11.4843C3.57422 10.9997 3.9685 10.6054 4.45312 10.6054C4.93775 10.6054 5.33203 10.9997 5.33203 11.4843V14.9999C5.33203 15.4853 5.72555 15.8788 6.21094 15.8788C6.69633 15.8788 7.08984 15.4853 7.08984 14.9999V4.39453C7.08984 3.9099 7.48412 3.51562 7.96875 3.51562C8.45338 3.51562 8.84766 3.9099 8.84766 4.39453V11.4844C8.84766 11.9698 9.24117 12.3633 9.72656 12.3633C10.212 12.3633 10.6055 11.9698 10.6055 11.4844V2.63672C10.6055 2.15209 10.9997 1.75781 11.4844 1.75781C11.969 1.75781 12.3633 2.15209 12.3633 2.63672V11.4844C12.3633 11.9698 12.7568 12.3633 13.2422 12.3633C13.7276 12.3633 14.1211 11.9698 14.1211 11.4844V4.39453C14.1211 3.9099 14.5154 3.51562 15 3.51562C15.4846 3.51562 15.8789 3.9099 15.8789 4.39453V11.4844C15.8789 11.9698 16.2724 12.3633 16.7578 12.3633C17.2432 12.3633 17.6367 11.9698 17.6367 11.4844V6.15234C17.6367 5.66772 18.031 5.27344 18.5156 5.27344C19.0003 5.27344 19.3945 5.66772 19.3945 6.15234V11.338C19.3945 14.8397 18.833 18.2996 17.7258 21.6216C17.6768 21.7685 17.6367 21.8663 17.6367 22.0312V24.668H7.08984ZM26.4258 14.8536C26.4258 18.3553 25.8643 21.8152 24.757 25.1372C24.708 25.2841 24.668 25.3819 24.668 25.5469V28.2422H14.1211V26.4258H18.5156C19.001 26.4258 19.3945 26.0323 19.3945 25.5469V22.1739C20.5608 18.6735 21.1523 15.0276 21.1523 11.3379V7.91016C21.1523 7.42553 21.5466 7.03125 22.0312 7.03125C22.5159 7.03125 22.9102 7.42553 22.9102 7.91016V15C22.9102 15.4854 23.3037 15.8789 23.7891 15.8789C24.2745 15.8789 24.668 15.4854 24.668 15V9.72656C24.668 9.22717 25.0787 8.78906 25.5469 8.78906C26.0151 8.78906 26.4258 9.22717 26.4258 9.72656V14.8536Z" fill="#AB9A80"/>
</svg>
