<svg width="32" height="32" viewBox="0 0 32 32" fill="none" xmlns="http://www.w3.org/2000/svg">
<path d="M28.7293 5.18162L16.4793 0.0955547C16.1724 -0.0318203 15.8275 -0.0318828 15.5207 0.0955547L3.27069 5.18162C2.80413 5.37537 2.5 5.83087 2.5 6.33606V12.5189C2.5 21.0322 7.64556 28.6901 15.5276 31.9073C15.8304 32.0309 16.1696 32.0309 16.4724 31.9073C24.3543 28.6902 29.5 21.0322 29.5 12.5189V6.33606C29.5 5.83087 29.1959 5.37537 28.7293 5.18162ZM27 12.5189C27 19.7561 22.75 26.4184 16 29.3922C9.43038 26.4978 5 19.9522 5 12.5189V7.17056L16 2.60343L27 7.17056V12.5189Z" fill="#AB9A80"/>
<path d="M20.992 19.888V22H12.528V20.32L16.848 16.24C17.3067 15.8027 17.616 15.4293 17.776 15.12C17.936 14.8 18.016 14.4853 18.016 14.176C18.016 13.728 17.8613 13.3867 17.552 13.152C17.2533 12.9067 16.8107 12.784 16.224 12.784C15.7333 12.784 15.2907 12.88 14.896 13.072C14.5013 13.2533 14.1707 13.5307 13.904 13.904L12.016 12.688C12.4533 12.0373 13.056 11.5307 13.824 11.168C14.592 10.7947 15.472 10.608 16.464 10.608C17.296 10.608 18.0213 10.7467 18.64 11.024C19.2693 11.2907 19.7547 11.6747 20.096 12.176C20.448 12.6667 20.624 13.248 20.624 13.92C20.624 14.528 20.496 15.0987 20.24 15.632C19.984 16.1653 19.488 16.7733 18.752 17.456L16.176 19.888H20.992Z" fill="#AB9A80"/>
</svg>
