<svg width="9" height="9" viewBox="0 0 9 9" fill="none" xmlns="http://www.w3.org/2000/svg">
<g clip-path="url(#clip0)">
<path d="M2.99135 8.85611L7.00007 4.84732C7.0927 4.75469 7.14355 4.63118 7.14355 4.49661C7.14355 4.36476 7.0927 4.24118 7.00007 4.14869L2.99516 0.143633C2.90245 0.0509996 2.77886 -1.90787e-07 2.64701 -1.9655e-07C2.51516 -2.02314e-07 2.3915 0.0509264 2.29887 0.143633L2.00392 0.438583C1.91128 0.531217 1.86014 0.654875 1.86014 0.786728C1.86014 0.918581 1.91128 1.04217 2.00392 1.13487L5.36705 4.49801L2.00004 7.86487C1.90748 7.9575 1.8564 8.08109 1.8564 8.21301C1.8564 8.34487 1.90748 8.46838 2.00004 8.56109L2.29514 8.85611C2.48706 9.04796 2.79943 9.04796 2.99135 8.85611Z" fill="#777777"/>
</g>
<defs>
<clipPath id="clip0">
<rect x="9" width="9" height="9" transform="rotate(90 9 0)" fill="white"/>
</clipPath>
</defs>
</svg>
