<svg xmlns="http://www.w3.org/2000/svg" width="18" height="16"><path fill="#ffffff" fill-rule="evenodd" d="M8.485 12.423a1.032 1.032 0 010 2.061 1.032 1.032 0 01-1.031-1.03c.026-.582.476-1.031 1.03-1.031M8.459 11.1a2.355 2.355 0 00-2.246 1.692H.66c-.397 0-.66.29-.66.66 0 .37.29.661.66.661h5.577c.264.978 1.19 1.692 2.247 1.692a2.363 2.363 0 002.273-1.692h6.581c.37 0 .661-.29.661-.66 0-.37-.29-.661-.66-.661H10.73A2.363 2.363 0 008.458 11.1m4.81-4.493c.556 0 1.032.449 1.032 1.03a1.032 1.032 0 01-2.062 0c0-.581.45-1.03 1.03-1.03m-.026-1.322a2.355 2.355 0 00-2.246 1.692H.66c-.397 0-.66.29-.66.66 0 .37.29.661.66.661h10.335c.264.978 1.19 1.692 2.246 1.692a2.363 2.363 0 002.274-1.692h1.823c.37 0 .661-.29.661-.66 0-.37-.29-.661-.66-.661h-1.824a2.363 2.363 0 00-2.274-1.692M5.312 1.32a1.032 1.032 0 11-1.03 1.03c0-.58.476-1.03 1.03-1.03M5.287 0A2.355 2.355 0 003.04 1.69H.634c-.37 0-.634.291-.634.661 0 .37.29.66.66.66h2.406c.264.98 1.19 1.692 2.247 1.692a2.363 2.363 0 002.273-1.691h9.753c.37 0 .661-.29.661-.661 0-.37-.29-.66-.66-.66H7.585A2.416 2.416 0 005.286 0"/></svg>
