<svg width="12" height="8" viewBox="0 0 12 8" fill="none" xmlns="http://www.w3.org/2000/svg">
<path d="M0.191854 1.98851L5.5369 7.33346C5.66042 7.45698 5.8251 7.52478 6.00451 7.52478C6.18032 7.52478 6.3451 7.45698 6.46841 7.33346L11.8085 1.99358C11.932 1.86997 12 1.70519 12 1.52939C12 1.35359 11.9321 1.18871 11.8085 1.0652L11.4152 0.67193C11.2917 0.548418 11.1268 0.480224 10.951 0.480224C10.7752 0.480224 10.6104 0.548418 10.4868 0.67193L6.00266 5.15611L1.51351 0.66676C1.39 0.543345 1.22521 0.475248 1.04931 0.475248C0.873509 0.475248 0.708828 0.543345 0.585218 0.666759L0.191854 1.06022C-0.06395 1.31612 -0.06395 1.73261 0.191854 1.98851Z" fill="#777777"/>
</svg>
