<svg width="14" height="12" viewBox="0 0 14 12" fill="none" xmlns="http://www.w3.org/2000/svg">
<path d="M1.44531 6.16393L12.1993 6.16393L8.08144 10.0861C7.86582 10.2915 7.85746 10.6328 8.06284 10.8484C8.26796 11.0637 8.60918 11.0724 8.82508 10.867L13.5279 6.38737C13.7314 6.18361 13.8438 5.913 13.8438 5.62487C13.8438 5.33701 13.7314 5.06613 13.5184 4.85347L8.82481 0.383024C8.7205 0.283567 8.58681 0.234243 8.45313 0.234243C8.31081 0.234243 8.1685 0.290305 8.06257 0.401621C7.85719 0.617246 7.86555 0.958205 8.08117 1.16359L12.2163 5.08581L1.44531 5.0858C1.14775 5.0858 0.906249 5.3273 0.906249 5.62487C0.906249 5.92243 1.14775 6.16393 1.44531 6.16393Z" fill="white"/>
</svg>
