<svg width="11" height="11" viewBox="0 0 11 11" fill="none" xmlns="http://www.w3.org/2000/svg">
<path d="M10.3978 4.64139H6.35934V0.609936C6.35934 0.278147 6.09069 0.000732422 5.7589 0.000732422H5.24208C4.91038 0.000732422 4.64057 0.278147 4.64057 0.609936V4.64139H0.601602C0.269992 4.64139 0 4.90968 0 5.24156V5.76133C0 6.09294 0.269902 6.36007 0.601602 6.36007H4.64066V10.4061C4.64066 10.7377 4.91038 11.0006 5.24217 11.0006H5.75899C6.09078 11.0006 6.35943 10.7376 6.35943 10.4061V6.36007H10.3978C10.7296 6.36007 11 6.09285 11 5.76133V5.24156C11 4.90968 10.7296 4.64139 10.3978 4.64139Z" fill="#777777"/>
</svg>
