<svg width="27" height="27" viewBox="0 0 27 27" fill="none" xmlns="http://www.w3.org/2000/svg">
<path d="M4.21875 14.3438L21.0511 14.3438L14.6057 20.4829C14.2682 20.8044 14.2552 21.3385 14.5766 21.676C14.8977 22.0131 15.4318 22.0266 15.7697 21.7051L23.1306 14.6935C23.4491 14.3746 23.625 13.951 23.625 13.5C23.625 13.0495 23.4491 12.6255 23.1158 12.2926L15.7693 5.29541C15.606 5.13974 15.3968 5.06254 15.1875 5.06254C14.9648 5.06254 14.742 5.15029 14.5762 5.32452C14.2547 5.66202 14.2678 6.19569 14.6053 6.51716L21.0777 12.6563L4.21875 12.6563C3.753 12.6563 3.375 13.0343 3.375 13.5C3.375 13.9658 3.753 14.3438 4.21875 14.3438Z" fill="#AB9A80"/>
</svg>
