<svg width="9" height="7" viewBox="0 0 9 7" fill="none" xmlns="http://www.w3.org/2000/svg">
<path d="M0.143892 1.99135L4.15268 6.00007C4.24531 6.0927 4.36882 6.14355 4.50339 6.14355C4.63524 6.14355 4.75882 6.0927 4.85131 6.00007L8.85637 1.99516C8.949 1.90245 9 1.77886 9 1.64701C9 1.51516 8.94907 1.3915 8.85637 1.29887L8.56142 1.00392C8.46878 0.911282 8.34513 0.860137 8.21327 0.860137C8.08142 0.860137 7.95783 0.911282 7.86513 1.00392L4.50199 4.36705L1.13513 1.00004C1.0425 0.907478 0.918912 0.856405 0.786986 0.856405C0.655133 0.856405 0.531621 0.907478 0.438915 1.00004L0.143892 1.29513C-0.0479608 1.48706 -0.0479609 1.79943 0.143892 1.99135Z" fill="#777777"/>
</svg>
