<svg width="15" height="14" viewBox="0 0 15 14" fill="none" xmlns="http://www.w3.org/2000/svg">
<path d="M7.01016 1.34164C7.24964 0.604591 8.29236 0.604592 8.53185 1.34164L9.60467 4.64346C9.71177 4.97308 10.0189 5.19625 10.3655 5.19625H13.8373C14.6122 5.19625 14.9345 6.18794 14.3075 6.64346L11.4988 8.68409C11.2184 8.88781 11.1011 9.2489 11.2082 9.57852L12.281 12.8803C12.5205 13.6174 11.6769 14.2303 11.0499 13.7748L8.24123 11.7341C7.96084 11.5304 7.58116 11.5304 7.30077 11.7341L4.49208 13.7748C3.86511 14.2303 3.02152 13.6174 3.26101 12.8803L4.33383 9.57852C4.44093 9.2489 4.3236 8.88781 4.04321 8.68409L1.23452 6.64346C0.607548 6.18794 0.92977 5.19625 1.70475 5.19625H5.17649C5.52307 5.19625 5.83023 4.97308 5.93733 4.64346L7.01016 1.34164Z" fill="#B99116"/>
</svg>
