<svg width="15" height="14" viewBox="0 0 15 14" fill="none" xmlns="http://www.w3.org/2000/svg">
<path d="M6.94479 1.34164C7.18427 0.604591 8.227 0.604592 8.46648 1.34164L9.5393 4.64346C9.6464 4.97308 9.95357 5.19625 10.3001 5.19625H13.7719C14.5469 5.19625 14.8691 6.18794 14.2421 6.64346L11.4334 8.68409C11.153 8.88781 11.0357 9.2489 11.1428 9.57852L12.2156 12.8803C12.4551 13.6174 11.6115 14.2303 10.9846 13.7748L8.17586 11.7341C7.89547 11.5304 7.51579 11.5304 7.2354 11.7341L4.42671 13.7748C3.79974 14.2303 2.95616 13.6174 3.19564 12.8803L4.26846 9.57852C4.37556 9.2489 4.25824 8.88781 3.97785 8.68409L1.16915 6.64346C0.542179 6.18794 0.864401 5.19625 1.63938 5.19625H5.11112C5.4577 5.19625 5.76486 4.97308 5.87196 4.64346L6.94479 1.34164Z" fill="#DBDBDB"/>
</svg>
