<svg width="19" height="20" viewBox="0 0 19 20" fill="none" xmlns="http://www.w3.org/2000/svg">
<path d="M13.227 0H6.23834C5.4668 0 4.84062 0.671997 4.84062 1.5V13.9999H1.57937C0.80782 13.9999 0.181641 14.6719 0.181641 15.4999C0.181641 16.3279 0.80782 16.9999 1.57937 16.9999H4.84062V18.4999C4.84062 19.3279 5.4668 19.9999 6.23834 19.9999C7.00989 19.9999 7.63607 19.3279 7.63607 18.4999V16.9999H11.8293C12.6008 16.9999 13.227 16.3279 13.227 15.4999C13.227 14.6719 12.6008 13.9999 11.8293 13.9999H7.63607V12H13.227C16.3094 12 18.8179 9.30798 18.8179 6C18.8179 2.69202 16.3094 0 13.227 0ZM13.227 9H7.63607V3H13.227C14.7684 3 16.0224 4.34583 16.0224 6C16.0224 7.65417 14.7684 9 13.227 9Z" fill="#AB9A80"/>
</svg>
