<svg width="12" height="8" viewBox="0 0 12 8" fill="none" xmlns="http://www.w3.org/2000/svg">
<path d="M0.191856 1.98851L5.53691 7.33346C5.66042 7.45698 5.8251 7.52478 6.00451 7.52478C6.18032 7.52478 6.3451 7.45698 6.46841 7.33346L11.8085 1.99358C11.932 1.86997 12 1.70519 12 1.52939C12 1.35359 11.9321 1.18871 11.8085 1.0652L11.4152 0.671929C11.2917 0.548417 11.1268 0.480223 10.951 0.480223C10.7752 0.480223 10.6104 0.548417 10.4868 0.671929L6.00266 5.15611L1.51351 0.666758C1.39 0.543344 1.22522 0.475246 1.04932 0.475246C0.873511 0.475246 0.708829 0.543344 0.58522 0.666758L0.191856 1.06022C-0.0639481 1.31612 -0.0639481 1.73261 0.191856 1.98851Z" fill="#AB9A80"/>
</svg>
