<svg width="22" height="22" viewBox="0 0 22 22" fill="none" xmlns="http://www.w3.org/2000/svg">
<g clip-path="url(#clip0)">
<path d="M21.8657 10.6759L14.9907 3.80092C14.8591 3.67021 14.6635 3.63038 14.4912 3.70153C14.3198 3.77226 14.2083 3.93967 14.2083 4.12495V5.0416C14.2083 5.16333 14.2567 5.27973 14.3426 5.36567L19.0603 10.0833H0.458348C0.205004 10.0833 0 10.2883 0 10.5416V11.4583C0 11.7116 0.205004 11.9166 0.458348 11.9166H19.0603L14.3426 16.6343C14.2567 16.7202 14.2083 16.8366 14.2083 16.9583V17.875C14.2083 18.0603 14.3198 18.2277 14.4912 18.2984C14.5481 18.3221 14.6076 18.3333 14.6667 18.3333C14.7857 18.3333 14.903 18.2868 14.9907 18.1991L21.8657 11.3241C22.0448 11.145 22.0448 10.855 21.8657 10.6759Z" fill="white"/>
</g>
<defs>
<clipPath id="clip0">
<rect width="22" height="22" fill="white"/>
</clipPath>
</defs>
</svg>
