<svg width="73" height="73" viewBox="0 0 73 73" fill="none" xmlns="http://www.w3.org/2000/svg">
<path d="M70.9128 9.97971C69.8389 8.90396 68.0964 8.90211 67.0225 9.97515L34.0167 42.8939L22.1083 29.9602C21.0793 28.8432 19.3395 28.7708 18.2207 29.7996C17.1028 30.8286 17.0312 32.5692 18.0602 33.6872L31.9082 48.7265C32.4154 49.2777 33.1251 49.5978 33.8735 49.6133C33.8936 49.6141 33.913 49.6142 33.9323 49.6142C34.6596 49.6142 35.3592 49.3253 35.8746 48.8117L70.9073 13.8708C71.9839 12.7979 71.9858 11.0555 70.9128 9.97971Z" fill="#47BE57"/>
<path d="M70.2487 33.7487C68.7291 33.7487 67.4975 34.9803 67.4975 36.5C67.4975 53.5927 53.5927 67.4975 36.5 67.4975C19.4083 67.4975 5.50252 53.5927 5.50252 36.5C5.50252 19.4083 19.4083 5.50252 36.5 5.50252C38.0196 5.50252 39.2513 4.27093 39.2513 2.75133C39.2513 1.23159 38.0196 0 36.5 0C16.3737 0 0 16.3737 0 36.5C0 56.6255 16.3737 73 36.5 73C56.6255 73 73 56.6255 73 36.5C73 34.9804 71.7684 33.7487 70.2487 33.7487Z" fill="#47BE57"/>
</svg>
