<svg width="13" height="13" viewBox="0 0 13 13" fill="none" xmlns="http://www.w3.org/2000/svg">
<path d="M0.207842 4.32085L5.99831 10.1112C6.13212 10.245 6.31052 10.3185 6.50489 10.3185C6.69534 10.3185 6.87385 10.245 7.00745 10.1112L12.7925 4.32635C12.9263 4.19244 13 4.01393 13 3.82348C13 3.63302 12.9264 3.4544 12.7925 3.3206L12.3665 2.89456C12.2327 2.76076 12.0541 2.68688 11.8636 2.68688C11.6732 2.68688 11.4946 2.76076 11.3607 2.89456L6.50288 7.75242L1.63963 2.88896C1.50583 2.75526 1.32732 2.68149 1.13676 2.68149C0.946302 2.68149 0.767896 2.75526 0.633987 2.88896L0.207842 3.31521C-0.0692781 3.59244 -0.0692782 4.04363 0.207842 4.32085Z" fill="#777777"/>
</svg>
