<svg width="18" height="18" viewBox="0 0 18 18" fill="none" xmlns="http://www.w3.org/2000/svg">
<path d="M14.5547 8.83595H3.80066L7.91856 4.91373C8.13418 4.70835 8.14254 4.36712 7.93716 4.15149C7.73204 3.93614 7.39082 3.92751 7.17492 4.1329L2.47214 8.6125C2.26864 8.81627 2.15625 9.08688 2.15625 9.37501C2.15625 9.66287 2.26864 9.93375 2.48157 10.1464L7.17519 14.6169C7.2795 14.7163 7.41319 14.7656 7.54688 14.7656C7.68919 14.7656 7.8315 14.7096 7.93743 14.5983C8.14281 14.3826 8.13445 14.0417 7.91883 13.8363L3.78368 9.91407H14.5547C14.8523 9.91407 15.0938 9.67257 15.0938 9.37501C15.0938 9.07745 14.8523 8.83595 14.5547 8.83595Z" fill="white"/>
</svg>
